<svg width="285" height="173" viewBox="0 0 285 173" fill="none" xmlns="http://www.w3.org/2000/svg">
<path d="M171.066 4.90964C171.319 6.5563 171.193 8.13964 170.686 9.65964C170.306 11.053 169.736 12.4463 168.976 13.8396C167.963 15.993 166.759 17.9563 165.366 19.7296C164.099 21.503 162.769 23.2763 161.376 25.0496C159.223 27.7096 157.006 30.3063 154.726 32.8396C152.446 35.2463 150.103 37.7163 147.696 40.2496C145.669 42.403 143.706 44.5563 141.806 46.7096C139.906 48.863 137.943 51.0163 135.916 53.1696C134.269 54.943 132.623 56.7163 130.976 58.4896C129.329 60.1363 127.683 61.8463 126.036 63.6196C125.783 63.873 125.593 64.1263 125.466 64.3796C125.339 64.633 125.149 64.9496 124.896 65.3296C126.289 65.3296 127.303 65.393 127.936 65.5196C128.569 65.6463 129.139 65.773 129.646 65.8996C130.153 66.0263 130.723 66.2163 131.356 66.4696C132.496 66.8496 132.686 67.7363 131.926 69.1296C131.546 69.1296 131.356 69.1296 131.356 69.1296C130.723 68.4963 130.089 68.1163 129.456 67.9896C128.823 67.7363 128.063 67.6096 127.176 67.6096C124.896 67.483 123.439 67.6096 122.806 67.9896C122.173 68.243 121.096 69.193 119.576 70.8396C117.676 72.8663 115.776 74.893 113.876 76.9196C112.103 78.9463 110.329 81.0363 108.556 83.1896C107.163 84.963 105.643 86.673 103.996 88.3196C102.476 89.8396 101.019 91.4863 99.6259 93.2596C98.6125 94.3996 97.5359 95.603 96.3959 96.8696C95.3826 98.0096 94.3692 99.213 93.3559 100.48C91.9626 102.126 90.5059 103.773 88.9859 105.42C87.5926 106.94 86.1992 108.586 84.8059 110.36C83.4126 111.88 82.0825 113.463 80.8159 115.11C79.5492 116.63 78.2192 118.15 76.8259 119.67C73.9126 123.343 70.9359 126.953 67.8959 130.5C64.8559 134.173 61.8792 137.846 58.9659 141.52C56.4325 144.686 53.8992 147.853 51.3659 151.02C48.9592 154.313 46.4892 157.606 43.9559 160.9C42.5626 162.673 41.2959 164.383 40.1559 166.03C39.1425 167.803 38.1925 169.703 37.3059 171.73C37.0525 172.236 36.8626 172.553 36.7359 172.68C36.2292 172.933 35.8492 172.996 35.5959 172.87C35.2159 172.87 35.0259 172.616 35.0259 172.11C35.2792 171.096 35.5325 170.273 35.7859 169.64C36.1659 168.753 36.5459 167.93 36.9259 167.17C37.4326 166.41 37.9392 165.586 38.4459 164.7C40.0926 162.166 41.7392 159.696 43.3859 157.29C45.1592 154.883 46.9326 152.54 48.7059 150.26C50.9859 147.346 53.2659 144.433 55.5459 141.52C57.9526 138.606 60.3592 135.693 62.7659 132.78L80.4359 111.12C82.9692 108.206 85.5026 105.23 88.0359 102.19C90.6959 99.1496 93.2926 96.173 95.8259 93.2596L108.936 78.4396C110.329 76.9196 111.596 75.3996 112.736 73.8796C114.003 72.3596 115.333 70.8396 116.726 69.3196C116.979 69.193 117.169 69.003 117.296 68.7496C117.423 68.4963 117.613 68.1796 117.866 67.7996C116.853 67.673 115.966 67.673 115.206 67.7996C114.446 67.7996 113.686 67.7996 112.926 67.7996C110.393 68.053 107.923 68.243 105.516 68.3696C103.236 68.3696 100.829 68.4963 98.2959 68.7496C95.1292 69.003 91.9626 69.3196 88.7959 69.6996C85.6292 69.953 82.3992 70.2063 79.1059 70.4596C77.7126 70.5863 76.3192 70.713 74.9259 70.8396C73.5326 70.9663 72.1392 71.093 70.7459 71.2196C69.2259 71.3463 67.8325 71.9796 66.5659 73.1196C65.4259 74.133 64.2226 75.1463 62.9559 76.1596C61.8159 77.173 60.6759 78.1863 59.5359 79.1996C57.2559 81.353 54.9125 83.5063 52.5059 85.6596C50.2259 87.6863 47.9459 89.7763 45.6659 91.9296C43.1326 94.3363 40.5992 96.743 38.0659 99.1496C35.5325 101.43 32.9992 103.71 30.4659 105.99C29.4525 107.003 28.3759 108.08 27.2359 109.22C26.2226 110.233 25.1459 111.246 24.0059 112.26C21.4725 114.666 18.9392 117.073 16.4059 119.48C13.9992 121.76 11.4026 123.976 8.6159 126.13L4.62588 128.98C3.73921 129.486 2.91588 129.803 2.15588 129.93C1.52254 130.183 1.07922 129.93 0.825889 129.17C0.319222 128.283 0.255886 127.523 0.635886 126.89C0.88922 126.256 1.14256 125.686 1.3959 125.18C1.7759 124.673 2.15588 124.166 2.53588 123.66C4.05588 121.506 5.57588 119.48 7.09588 117.58C8.74254 115.68 10.4525 113.843 12.2259 112.07C16.6592 107.636 21.1559 103.33 25.7159 99.1496C30.2759 94.9696 34.9625 90.853 39.7759 86.7996C42.1825 84.6463 44.5892 82.6196 46.9959 80.7196C49.4025 78.693 51.8092 76.6663 54.2159 74.6396C54.4692 74.3863 54.7225 74.133 54.9759 73.8796C55.2292 73.6263 55.5459 73.3096 55.9259 72.9296C54.9126 73.0563 53.9626 73.183 53.0759 73.3096C52.1892 73.3096 51.3026 73.373 50.4159 73.4996L35.5959 75.7796L28.7559 76.9196C27.7425 77.173 27.0459 77.0463 26.6659 76.5396C26.1592 76.033 26.0959 75.653 26.4759 75.3996C26.8559 75.1463 27.2992 74.893 27.8059 74.6396L44.3359 68.3696C45.8559 67.7363 47.3126 67.5463 48.7059 67.7996C48.3259 68.433 48.0092 68.7496 47.7559 68.7496C46.3625 69.2563 44.9692 69.763 43.5759 70.2696C42.3092 70.6496 40.9792 71.1563 39.5859 71.7896C39.2059 71.9163 38.6359 72.1696 37.8759 72.5496C38.2559 72.6763 38.6359 72.7396 39.0159 72.7396C42.1826 72.3596 45.2859 71.9796 48.3259 71.5996C51.4926 71.093 54.7226 70.6496 58.0159 70.2696C59.1559 70.143 60.3592 69.6363 61.6259 68.7496C66.9459 64.443 72.5192 60.0096 78.3459 55.4496C85.5659 49.7496 92.7859 44.2396 100.006 38.9196C103.299 36.513 106.529 34.1696 109.696 31.8896C112.989 29.6096 116.283 27.3296 119.576 25.0496C120.589 24.4163 121.476 23.783 122.236 23.1496C123.123 22.5163 124.073 21.883 125.086 21.2496L126.796 20.1096C127.683 19.603 128.379 19.033 128.886 18.3996C129.519 17.7663 130.343 17.2596 131.356 16.8796C132.243 16.6263 133.066 16.2463 133.826 15.7396C134.586 15.233 135.346 14.7263 136.106 14.2196C137.626 13.333 139.209 12.4463 140.856 11.5596C145.543 8.77297 150.039 6.23963 154.346 3.95963C155.739 3.3263 157.069 2.7563 158.336 2.24964C159.729 1.6163 161.123 1.17297 162.516 0.919638C164.289 0.41297 165.936 0.349637 167.456 0.729639C169.736 1.10963 170.939 2.50297 171.066 4.90964ZM98.2959 42.9096H98.1059H98.2959ZM95.2559 45.1896H95.0659H95.2559ZM93.5459 45.9496C93.0392 46.4563 92.5325 46.8363 92.0259 47.0896C91.6459 47.343 91.3292 47.7863 91.0759 48.4196C92.0892 47.913 92.6592 47.5963 92.7859 47.4696C93.0392 47.2163 93.2926 46.7096 93.5459 45.9496ZM62.3859 73.1196C62.5126 72.993 62.5759 72.8663 62.5759 72.7396C62.7026 72.613 62.8292 72.4863 62.9559 72.3596C60.9292 72.1063 59.4726 72.5496 58.5859 73.6896C58.3326 73.943 58.0792 74.133 57.8259 74.2596C57.5726 74.2596 57.3192 74.3863 57.0659 74.6396C54.1525 77.173 51.1759 79.7063 48.1359 82.2396C45.0959 84.773 42.0559 87.3063 39.0159 89.8396C35.3426 92.8796 31.7325 95.983 28.1859 99.1496C24.7659 102.19 21.4092 105.356 18.1159 108.65C15.8359 111.056 13.5559 113.463 11.2759 115.87C9.12254 118.276 7.03255 120.81 5.00588 123.47C4.62588 124.103 4.24587 124.673 3.86587 125.18C3.48587 125.686 3.10588 126.446 2.72588 127.46C4.37255 126.7 5.76588 125.813 6.90588 124.8C8.80588 123.026 10.7059 121.316 12.6059 119.67C14.6326 118.023 16.5325 116.313 18.3059 114.54C21.2192 111.88 24.0059 109.22 26.6659 106.56C29.3259 103.9 32.0492 101.24 34.8359 98.5796C37.3692 96.173 39.8392 93.8296 42.2459 91.5496C44.6525 89.143 47.1225 86.7996 49.6559 84.5196C51.0492 83.253 52.4425 82.0496 53.8359 80.9096C55.2292 79.7696 56.6226 78.5663 58.0159 77.2996C58.7759 76.6663 59.5359 75.9696 60.2959 75.2096C61.0559 74.4496 61.7526 73.753 62.3859 73.1196ZM68.2759 68.1796C69.7959 66.7863 71.2526 65.5196 72.6459 64.3796C74.1659 63.113 75.6226 61.8463 77.0159 60.5796C78.7892 59.0596 80.5626 57.603 82.3359 56.2096C84.2359 54.6896 86.0725 53.1696 87.8459 51.6496C88.0992 51.3963 88.2259 51.2063 88.2259 51.0796C88.3525 50.8263 88.5426 50.573 88.7959 50.3196C89.3026 50.0663 89.7459 49.8763 90.1259 49.7496C90.5059 49.4963 90.8226 49.053 91.0759 48.4196C90.4426 48.4196 89.9359 48.6096 89.5559 48.9896C89.3026 49.3696 88.9859 49.7496 88.6059 50.1296L87.4659 50.6996C86.1992 51.713 84.9959 52.663 83.8559 53.5496C82.7159 54.3096 81.5126 55.1963 80.2459 56.2096C77.7126 58.2363 75.2426 60.1996 72.8359 62.0996C70.4292 63.9996 67.9592 65.8996 65.4259 67.7996L64.0959 69.1296C65.4892 69.2563 66.3759 69.3196 66.7559 69.3196C67.1359 69.193 67.6425 68.813 68.2759 68.1796ZM168.976 6.04964C169.229 3.76964 168.153 2.56631 165.746 2.43964C165.493 2.43964 165.176 2.50297 164.796 2.62964C164.543 2.62964 164.289 2.62964 164.036 2.62964C163.023 3.00964 162.009 3.38964 160.996 3.76964C159.983 4.02297 158.969 4.33964 157.956 4.71963C155.043 5.85963 152.193 7.18964 149.406 8.70964C146.746 10.2296 144.086 11.813 141.426 13.4596C139.653 14.473 137.879 15.5496 136.106 16.6896C134.333 17.703 132.559 18.7796 130.786 19.9196C130.153 20.2996 129.519 20.743 128.886 21.2496C128.253 21.6296 127.619 22.1363 126.986 22.7696C126.226 23.403 125.466 24.0363 124.706 24.6696C123.946 25.303 123.186 25.9363 122.426 26.5696C120.526 28.2163 118.626 29.7996 116.726 31.3196C114.826 32.8396 112.989 34.3596 111.216 35.8796C108.176 38.413 105.136 40.883 102.096 43.2896C99.0559 45.5696 96.0792 47.9763 93.1659 50.5096C89.8726 53.2963 86.5792 56.083 83.2859 58.8696C79.9925 61.5296 76.6992 64.253 73.4059 67.0396C73.1525 67.293 72.8992 67.5463 72.6459 67.7996C72.5192 68.053 72.2659 68.3696 71.8859 68.7496C72.8992 68.623 73.7859 68.5596 74.5459 68.5596C75.4326 68.433 76.2559 68.3063 77.0159 68.1796C79.8026 67.9263 82.5892 67.7363 85.3759 67.6096C88.1625 67.3563 90.9492 67.103 93.7359 66.8496C97.7892 66.5963 101.843 66.4063 105.896 66.2796C110.076 66.0263 114.193 65.773 118.246 65.5196C119.893 65.2663 121.159 64.6963 122.046 63.8096C125.339 60.1363 128.633 56.5896 131.926 53.1696C135.346 49.623 138.766 46.013 142.186 42.3396C145.353 38.9196 148.456 35.563 151.496 32.2696C154.663 28.9763 157.703 25.493 160.616 21.8196C161.629 20.4263 162.579 19.0963 163.466 17.8296C164.479 16.4363 165.429 15.043 166.316 13.6496C167.076 12.5096 167.646 11.3063 168.026 10.0396C168.406 8.77297 168.723 7.44297 168.976 6.04964Z" fill="#574A40"/>
<path d="M173.8 97.8196C174.687 97.9463 175.003 98.5796 174.75 99.7196C173.483 100.48 172.153 100.353 170.76 99.3396C169.62 98.5796 168.923 97.4396 168.67 95.9196C168.29 93.7663 168.607 91.4863 169.62 89.0796C169.873 88.4463 170.127 87.813 170.38 87.1796C170.633 86.5463 170.633 85.8496 170.38 85.0896C170.127 84.8363 169.62 84.963 168.86 85.4696C166.707 86.7363 164.553 88.003 162.4 89.2696C160.373 90.4096 158.283 91.6763 156.13 93.0696C153.47 94.843 150.81 96.6163 148.15 98.3896C145.49 100.163 142.83 101.936 140.17 103.71C137.257 105.483 134.407 107.383 131.62 109.41C128.96 111.436 126.3 113.526 123.64 115.68C121.74 117.2 119.84 118.72 117.94 120.24C115.913 121.76 114.013 123.406 112.24 125.18C111.987 125.433 111.67 125.623 111.29 125.75C110.91 125.876 110.53 126.066 110.15 126.32C109.897 125.94 109.643 125.56 109.39 125.18C109.137 124.926 108.883 124.673 108.63 124.42C108.883 124.04 109.137 123.596 109.39 123.09C111.163 121.063 112.937 119.1 114.71 117.2C116.483 115.3 118.257 113.463 120.03 111.69C121.297 110.423 122.563 109.156 123.83 107.89C124.97 106.496 126.173 105.166 127.44 103.9C128.453 102.886 129.213 102.19 129.72 101.81C129.973 101.683 130.227 101.493 130.48 101.24C133.393 97.9463 136.497 94.7796 139.79 91.7396C143.083 88.6996 146.377 85.6596 149.67 82.6196C150.43 81.8596 151.19 81.163 151.95 80.5296C152.71 79.8963 153.533 79.263 154.42 78.6296C154.547 78.503 154.863 78.313 155.37 78.0596C156.257 77.8063 156.89 77.9963 157.27 78.6296C157.65 79.263 157.713 79.833 157.46 80.3396C156.447 81.733 155.433 83.063 154.42 84.3296C153.407 85.4696 152.393 86.673 151.38 87.9396C151.127 88.193 150.873 88.3196 150.62 88.3196C149.607 88.0663 148.783 88.3196 148.15 89.0796C147.517 89.713 146.883 90.3463 146.25 90.9796C145.363 91.8663 144.477 92.753 143.59 93.6396C142.703 94.3996 141.88 95.223 141.12 96.1096C140.613 96.743 139.98 97.2496 139.22 97.6296C138.587 97.883 138.017 98.453 137.51 99.3396C137.257 99.973 136.813 100.543 136.18 101.05C135.547 101.556 134.913 102.126 134.28 102.76C133.647 103.393 133.077 103.963 132.57 104.47C132.19 104.85 131.747 105.356 131.24 105.99C131.113 106.243 131.05 106.686 131.05 107.32V107.51C131.303 107.003 131.43 106.75 131.43 106.75C133.837 105.103 136.18 103.52 138.46 102C140.74 100.353 143.02 98.7696 145.3 97.2496L157.27 89.2696C159.17 88.003 161.07 86.7996 162.97 85.6596C164.997 84.5196 166.96 83.3796 168.86 82.2396C169.493 81.8596 170.127 81.543 170.76 81.2896C171.393 80.9096 172.153 80.8463 173.04 81.0996C174.053 81.733 174.497 82.493 174.37 83.3796C174.37 84.1396 174.243 84.963 173.99 85.8496C173.737 86.863 173.42 87.8763 173.04 88.8896C172.66 89.903 172.28 90.9163 171.9 91.9296C171.773 92.4363 171.647 92.943 171.52 93.4496C171.393 93.8296 171.33 94.273 171.33 94.7796C170.95 96.0463 171.457 96.933 172.85 97.4396C172.977 97.5663 173.103 97.6296 173.23 97.6296C173.483 97.6296 173.673 97.693 173.8 97.8196Z" fill="#574A40"/>
<path d="M284.064 17.6396C285.077 18.653 285.204 19.7296 284.444 20.8696C283.811 21.883 283.114 22.833 282.354 23.7196C281.721 24.6063 281.024 25.493 280.264 26.3796C276.844 30.1796 273.361 33.853 269.814 37.3996C266.267 40.9463 262.657 44.5563 258.984 48.2296C257.844 49.3696 256.704 50.5096 255.564 51.6496C254.424 52.7896 253.347 53.993 252.334 55.2596C252.207 55.2596 252.144 55.4496 252.144 55.8296C252.524 56.083 252.904 56.2096 253.284 56.2096C253.791 56.2096 254.234 56.2096 254.614 56.2096C255.754 56.2096 256.831 56.2096 257.844 56.2096C258.984 56.2096 260.124 56.273 261.264 56.3996C262.024 56.3996 262.784 56.5263 263.544 56.7796C264.304 56.9063 265.064 57.033 265.824 57.1596C266.457 57.2863 266.901 57.5396 267.154 57.9196C267.407 58.2996 267.661 58.6796 267.914 59.0596C268.041 59.313 268.104 59.7563 268.104 60.3896C267.977 60.7696 267.724 61.0863 267.344 61.3396C267.091 61.4663 266.837 61.403 266.584 61.1496C265.951 60.1363 265.191 59.5663 264.304 59.4396C263.417 59.1863 262.467 59.0596 261.454 59.0596C259.554 58.8063 257.591 58.743 255.564 58.8696C253.664 58.8696 251.764 58.933 249.864 59.0596C248.851 59.0596 248.091 59.3763 247.584 60.0096C246.697 60.643 245.874 61.3396 245.114 62.0996C244.354 62.8596 243.594 63.6196 242.834 64.3796C240.427 66.913 237.894 69.3196 235.234 71.5996C232.701 73.753 230.167 75.9696 227.634 78.2496C225.481 80.1496 223.264 82.0496 220.984 83.9496C218.831 85.8496 216.614 87.7496 214.334 89.6496C212.434 91.2963 210.471 92.8796 208.444 94.3996C206.544 95.793 204.517 97.1863 202.364 98.5796C202.111 98.833 201.794 98.9596 201.414 98.9596C200.401 99.3396 199.514 99.9096 198.754 100.67C198.121 101.303 197.487 102.063 196.854 102.95C196.221 103.583 195.651 104.28 195.144 105.04C194.764 105.8 194.194 106.496 193.434 107.13C193.307 107.256 193.117 107.51 192.864 107.89L184.314 121.57C182.794 124.103 181.654 126.763 180.894 129.55C180.514 131.07 180.324 132.59 180.324 134.11C180.324 136.896 181.781 138.606 184.694 139.24C185.834 139.493 186.974 139.493 188.114 139.24C189.254 138.986 190.394 138.67 191.534 138.29C194.447 137.276 197.297 136.136 200.084 134.87C202.997 133.603 205.784 132.21 208.444 130.69C212.117 128.663 215.664 126.636 219.084 124.61C222.631 122.583 226.114 120.493 229.534 118.34C234.727 115.046 239.794 111.753 244.734 108.46C249.674 105.04 254.487 101.493 259.174 97.8196L262.594 94.9696C262.721 94.5896 263.101 94.273 263.734 94.0196C264.114 94.0196 264.367 94.083 264.494 94.2096C264.621 94.3363 264.684 94.5896 264.684 94.9696C264.431 95.223 264.241 95.413 264.114 95.5396C264.114 95.6663 263.987 95.8563 263.734 96.1096C262.214 97.3763 260.694 98.7063 259.174 100.1C257.654 101.366 256.134 102.57 254.614 103.71C252.081 105.483 249.547 107.256 247.014 109.03C244.481 110.803 241.947 112.513 239.414 114.16C236.627 115.933 233.841 117.706 231.054 119.48C228.394 121.126 225.607 122.836 222.694 124.61C220.161 126.256 217.627 127.776 215.094 129.17C212.561 130.69 209.964 132.146 207.304 133.54C202.491 136.326 197.297 138.67 191.724 140.57C190.711 141.076 189.317 141.52 187.544 141.9H184.124C183.871 141.773 183.681 141.646 183.554 141.52C183.301 141.52 183.047 141.456 182.794 141.33C180.261 140.443 178.487 138.48 177.474 135.44C177.094 134.046 176.967 132.716 177.094 131.45C177.221 130.31 177.411 129.043 177.664 127.65C179.184 122.203 181.527 117.136 184.694 112.45C185.201 111.816 185.581 111.183 185.834 110.55C186.214 109.79 186.657 109.093 187.164 108.46C188.684 106.18 190.204 103.963 191.724 101.81C193.371 99.5296 195.081 97.313 196.854 95.1596C197.361 94.5263 197.804 93.9563 198.184 93.4496C198.691 92.8163 199.197 92.183 199.704 91.5496C200.211 91.043 200.654 90.5363 201.034 90.0296C201.414 89.3963 201.857 88.763 202.364 88.1296C203.757 86.6096 205.024 85.0896 206.164 83.5696C207.431 82.0496 208.761 80.5296 210.154 79.0096C212.307 76.603 214.461 74.2596 216.614 71.9796C218.894 69.573 221.111 67.2296 223.264 64.9496C223.771 64.3163 224.277 63.8096 224.784 63.4296C225.417 62.923 226.051 62.353 226.684 61.7196C226.811 61.593 226.874 61.403 226.874 61.1496C227.001 60.8963 227.191 60.643 227.444 60.3896C226.304 60.263 225.227 60.263 224.214 60.3896C223.201 60.3896 222.187 60.453 221.174 60.5796C219.781 60.7063 218.387 60.833 216.994 60.9596C215.727 60.9596 214.397 61.023 213.004 61.1496C211.864 61.2763 210.724 61.403 209.584 61.5296C208.444 61.5296 207.304 61.6563 206.164 61.9096C204.517 62.163 202.871 62.353 201.224 62.4796C199.704 62.6063 198.057 62.7963 196.284 63.0496C195.651 63.0496 195.207 62.9863 194.954 62.8596C194.447 62.6063 194.194 62.2896 194.194 61.9096C193.941 61.2763 194.067 60.833 194.574 60.5796C195.207 60.073 195.904 59.7563 196.664 59.6296L213.194 55.0696C213.701 54.943 214.207 54.8796 214.714 54.8796C215.221 54.753 215.791 54.6263 216.424 54.4996C217.057 54.4996 217.311 54.8796 217.184 55.6396C216.171 56.0196 215.094 56.3996 213.954 56.7796C212.814 57.1596 211.737 57.5396 210.724 57.9196C210.724 57.9196 210.661 58.0463 210.534 58.2996H211.294C214.334 58.0463 217.311 57.8563 220.224 57.7296C223.264 57.4763 226.304 57.2863 229.344 57.1596C230.611 57.033 231.624 56.5896 232.384 55.8296C234.157 54.4363 235.804 52.9796 237.324 51.4596C238.844 49.9396 240.491 48.483 242.264 47.0896C242.897 46.583 243.404 46.0763 243.784 45.5696C244.164 45.063 244.671 44.5563 245.304 44.0496C245.557 43.7963 245.811 43.543 246.064 43.2896C246.444 42.9096 246.887 42.6563 247.394 42.5296C247.901 42.5296 248.154 42.403 248.154 42.1496C248.407 41.5163 248.724 41.1363 249.104 41.0096C249.611 40.7563 249.991 40.4396 250.244 40.0596C251.004 39.173 251.891 38.5396 252.904 38.1596C253.157 37.9063 253.284 37.7796 253.284 37.7796C254.424 36.2596 255.817 34.993 257.464 33.9796C259.111 32.9663 260.631 31.8263 262.024 30.5596C263.291 29.5463 264.557 28.533 265.824 27.5196C267.217 26.5063 268.611 25.493 270.004 24.4796C271.524 23.3396 273.044 22.3263 274.564 21.4396C276.211 20.553 277.857 19.6663 279.504 18.7796C280.771 18.0196 282.291 17.6396 284.064 17.6396ZM244.164 60.3896C244.417 59.883 244.734 59.4396 245.114 59.0596C243.594 59.1863 242.137 59.313 240.744 59.4396C239.477 59.4396 238.211 59.503 236.944 59.6296C235.931 59.6296 235.107 59.883 234.474 60.3896C233.841 60.8963 233.207 61.4663 232.574 62.0996C232.067 62.733 231.497 63.3663 230.864 63.9996C230.231 64.633 229.597 65.2663 228.964 65.8996C228.457 66.533 227.887 67.1663 227.254 67.7996C226.621 68.433 225.924 69.0663 225.164 69.6996C224.531 70.333 223.897 70.9663 223.264 71.5996C221.744 73.373 220.224 75.083 218.704 76.7296C217.184 78.3763 215.601 80.0863 213.954 81.8596C212.687 83.253 211.484 84.6463 210.344 86.0396C209.204 87.433 207.937 88.763 206.544 90.0296C205.911 90.663 205.277 91.423 204.644 92.3096C204.011 93.1963 203.377 94.0196 202.744 94.7796C202.617 94.9063 202.364 95.413 201.984 96.2996C202.491 96.0463 202.807 95.9196 202.934 95.9196C203.187 95.9196 203.441 95.8563 203.694 95.7296C204.581 95.0963 205.467 94.463 206.354 93.8296C207.241 93.0696 208.127 92.373 209.014 91.7396C210.787 90.2196 212.497 88.763 214.144 87.3696C215.917 85.8496 217.691 84.3296 219.464 82.8096C220.984 81.543 222.504 80.3396 224.024 79.1996C225.544 77.933 227.001 76.603 228.394 75.2096C230.167 73.6896 231.814 72.1696 233.334 70.6496C234.981 69.1296 236.627 67.6096 238.274 66.0896C239.287 65.0763 240.237 64.1263 241.124 63.2396C242.137 62.353 243.151 61.403 244.164 60.3896ZM278.364 25.0496C278.744 24.6696 279.061 24.2896 279.314 23.9096C279.567 23.5296 279.884 23.1496 280.264 22.7696C280.137 22.7696 279.947 22.643 279.694 22.3896L275.704 25.2396C274.311 26.253 272.981 27.2663 271.714 28.2796C270.574 29.293 269.307 30.3063 267.914 31.3196C265.761 32.8396 263.734 34.4863 261.834 36.2596C259.934 37.9063 257.907 39.4896 255.754 41.0096C254.107 42.2763 252.524 43.6063 251.004 44.9996C249.611 46.2663 248.154 47.5963 246.634 48.9896C245.874 49.623 245.114 50.3196 244.354 51.0796C243.721 51.713 243.087 52.3463 242.454 52.9796C242.201 53.233 241.884 53.4863 241.504 53.7396C241.251 53.993 240.997 54.2463 240.744 54.4996C240.364 54.753 239.794 55.2596 239.034 56.0196C239.161 56.1463 239.224 56.273 239.224 56.3996C240.871 56.273 242.391 56.2096 243.784 56.2096C245.304 56.2096 246.761 56.2096 248.154 56.2096C249.294 55.1963 250.307 54.2463 251.194 53.3596C252.207 52.3463 253.221 51.333 254.234 50.3196C256.641 47.913 258.984 45.5696 261.264 43.2896C263.671 40.883 266.014 38.413 268.294 35.8796C270.067 34.1063 271.777 32.333 273.424 30.5596C275.071 28.6596 276.717 26.823 278.364 25.0496Z" fill="#574A40"/>
</svg>
