<svg width="75" height="31" viewBox="0 0 75 31" fill="none" xmlns="http://www.w3.org/2000/svg">
<path d="M12.4272 18.5239L11.8872 18.8839C10.9472 19.6039 9.98721 20.2639 9.00721 20.8639C8.58721 21.1239 8.16721 21.3739 7.74721 21.6139C7.32721 21.8739 6.90721 22.1239 6.48721 22.3639C5.98721 22.6439 5.47721 22.8939 4.95721 23.1139C4.45721 23.3539 3.93721 23.5539 3.39721 23.7139C3.11721 23.8139 2.83721 23.8939 2.55721 23.9539C2.27721 24.0139 1.9872 24.0239 1.6872 23.9839C1.6072 23.9639 1.52721 23.9439 1.44721 23.9239C1.36721 23.9239 1.28721 23.9139 1.20721 23.8939C0.927208 23.7939 0.767205 23.6039 0.727205 23.3239C0.687205 23.1639 0.687205 23.0039 0.727205 22.8439C0.767205 22.7039 0.827205 22.5539 0.907205 22.3939C1.0472 22.1739 1.19721 21.9539 1.35721 21.7339C1.53721 21.5339 1.72721 21.3339 1.92721 21.1339C2.94721 20.1339 4.08721 19.3739 5.34721 18.8539C5.98721 18.5539 6.62721 18.3139 7.26721 18.1339C8.84721 17.6939 10.4472 17.6039 12.0672 17.8639C12.2272 17.9239 12.3972 17.8839 12.5772 17.7439C12.9172 17.4639 13.2572 17.1939 13.5972 16.9339C13.9572 16.6539 14.3072 16.3739 14.6472 16.0939C14.8072 15.9939 14.9472 15.8939 15.0672 15.7939C15.2072 15.6739 15.3472 15.5639 15.4872 15.4639C15.9472 15.0639 16.4072 14.6839 16.8672 14.3239C17.3272 13.9439 17.7872 13.5639 18.2472 13.1839C18.6472 12.8639 19.0272 12.5539 19.3872 12.2539C19.7672 11.9539 20.1572 11.6439 20.5572 11.3239C20.7772 11.1439 20.9972 10.9639 21.2172 10.7839C21.4372 10.5839 21.6672 10.3939 21.9072 10.2139C22.3072 9.89386 22.7072 9.57386 23.1072 9.25386C23.5272 8.93386 23.9472 8.61386 24.3672 8.29386C24.6872 8.03386 25.0072 7.78386 25.3272 7.54386C25.6672 7.30386 26.0072 7.05386 26.3472 6.79386C26.6072 6.61386 26.8672 6.43386 27.1272 6.25386C27.3872 6.07386 27.6572 5.89386 27.9372 5.71386C28.1772 5.55386 28.4172 5.39386 28.6572 5.23386C28.8972 5.05386 29.1472 4.88386 29.4072 4.72386C29.5672 4.62386 29.7272 4.52386 29.8872 4.42386C30.0672 4.32386 30.2372 4.22386 30.3972 4.12386C30.8172 3.90386 31.2272 3.67386 31.6272 3.43386C32.0472 3.19386 32.4672 2.96386 32.8872 2.74386C33.2072 2.58386 33.5272 2.43386 33.8472 2.29386C34.1672 2.15386 34.4972 2.00386 34.8372 1.84386C35.2572 1.66386 35.6772 1.49386 36.0972 1.33386C36.5172 1.17386 36.9472 1.03386 37.3872 0.913856C37.7472 0.813856 38.0972 0.723856 38.4372 0.643856C38.7972 0.563857 39.1672 0.523857 39.5472 0.523857C39.9072 0.483857 40.2372 0.513856 40.5372 0.613856C41.2572 0.813856 41.6172 1.28386 41.6172 2.02386C41.6172 2.26386 41.5772 2.49386 41.4972 2.71386C41.4172 2.93386 41.3272 3.15386 41.2272 3.37386C40.9472 3.95386 40.6072 4.49386 40.2072 4.99386C39.8272 5.49386 39.4172 5.97386 38.9772 6.43386C38.6372 6.77386 38.2972 7.11386 37.9572 7.45386C37.6172 7.77386 37.2572 8.08386 36.8772 8.38386C36.5572 8.64386 36.2372 8.89386 35.9172 9.13386C35.5972 9.37386 35.2672 9.61386 34.9272 9.85386C34.4072 10.2339 33.8772 10.5939 33.3372 10.9339C32.7972 11.2739 32.2472 11.6139 31.6872 11.9539C30.9472 12.3939 30.1972 12.8139 29.4372 13.2139C28.6972 13.5939 27.9372 13.9539 27.1572 14.2939C26.8172 14.4339 26.4672 14.5639 26.1072 14.6839C25.7672 14.8039 25.4272 14.9339 25.0872 15.0739C24.9472 15.1339 24.8072 15.1439 24.6672 15.1039C24.7072 15.0239 24.7372 14.9739 24.7572 14.9539C24.8772 14.9139 24.9872 14.8739 25.0872 14.8339C25.2072 14.7739 25.3272 14.7239 25.4472 14.6839C26.2872 14.3839 27.0972 14.0439 27.8772 13.6639C28.6572 13.2839 29.4272 12.8839 30.1872 12.4639C30.9272 12.0639 31.6472 11.6439 32.3472 11.2039C33.0472 10.7439 33.7472 10.2739 34.4472 9.79386C35.0272 9.39386 35.5972 8.97386 36.1572 8.53386C36.7372 8.07386 37.2872 7.59386 37.8072 7.09386C38.1472 6.75386 38.4872 6.41386 38.8272 6.07386C39.1672 5.73386 39.4772 5.36386 39.7572 4.96386C40.0172 4.64386 40.2472 4.31386 40.4472 3.97386C40.6472 3.63386 40.8272 3.28386 40.9872 2.92386C41.1472 2.58386 41.2072 2.23386 41.1672 1.87386C41.1272 1.53386 40.9572 1.30386 40.6572 1.18386C40.4172 1.06386 40.1672 1.00386 39.9072 1.00386C39.5072 1.02386 39.1172 1.07386 38.7372 1.15386C38.3772 1.21386 38.0172 1.29386 37.6572 1.39386C36.8772 1.63386 36.1172 1.91386 35.3772 2.23386C34.6372 2.53386 33.9072 2.86386 33.1872 3.22386C32.7872 3.44386 32.3872 3.66386 31.9872 3.88386C31.6072 4.08386 31.2172 4.29386 30.8172 4.51386C30.4772 4.73386 30.1272 4.95386 29.7672 5.17386C29.4272 5.39386 29.0872 5.61386 28.7472 5.83386C28.6472 5.89386 28.5472 5.96386 28.4472 6.04386C28.3472 6.10386 28.2472 6.16386 28.1472 6.22386C27.8472 6.44386 27.5472 6.65386 27.2472 6.85386C26.9472 7.03386 26.6572 7.23386 26.3772 7.45386C25.9972 7.73386 25.6172 8.02386 25.2372 8.32386C24.8772 8.62386 24.4972 8.91386 24.0972 9.19386C23.9372 9.33386 23.7672 9.47386 23.5872 9.61386C23.4072 9.73386 23.2272 9.86386 23.0472 10.0039C22.8272 10.1839 22.6072 10.3639 22.3872 10.5439C22.1872 10.7039 21.9772 10.8639 21.7572 11.0239C21.3972 11.3239 21.0372 11.6339 20.6772 11.9539C20.3172 12.2539 19.9472 12.5539 19.5672 12.8539L17.9472 14.2039C17.5272 14.5439 17.1072 14.8839 16.6872 15.2239C16.2672 15.5639 15.8372 15.9039 15.3972 16.2439C15.0772 16.5039 14.7472 16.7639 14.4072 17.0239C14.0872 17.2639 13.7672 17.5139 13.4472 17.7739C13.3872 17.8139 13.3172 17.8539 13.2372 17.8939C13.1572 17.9339 13.0972 18.0039 13.0572 18.1039C13.2172 18.1639 13.3672 18.2239 13.5072 18.2839C13.6672 18.3439 13.8272 18.4039 13.9872 18.4639C14.3272 18.6039 14.6572 18.7639 14.9772 18.9439C15.2972 19.1039 15.6072 19.2939 15.9072 19.5139C16.2672 19.7539 16.6172 19.9939 16.9572 20.2339C17.2972 20.4939 17.6372 20.7439 17.9772 20.9839L19.1472 21.7939C19.3272 21.9139 19.5072 22.0339 19.6872 22.1539C19.8672 22.2739 20.0572 22.3939 20.2572 22.5139C20.5172 22.6739 20.7872 22.8139 21.0672 22.9339C21.3472 23.0739 21.6272 23.2039 21.9072 23.3239C22.8672 23.6839 23.8472 23.9239 24.8472 24.0439C25.0472 24.0839 25.2472 24.1039 25.4472 24.1039C25.6472 24.1039 25.8572 24.1039 26.0772 24.1039C26.8372 24.1039 27.5572 24.0339 28.2372 23.8939C29.0172 23.7139 29.7572 23.4739 30.4572 23.1739C30.9572 22.9739 31.4472 22.7639 31.9272 22.5439C32.4272 22.3439 32.9172 22.1139 33.3972 21.8539C33.7972 21.6539 34.1872 21.4439 34.5672 21.2239C34.9672 21.0039 35.3472 20.7539 35.7072 20.4739C36.0872 20.2139 36.4472 19.8839 36.7872 19.4839C36.8272 19.5239 36.8672 19.5439 36.9072 19.5439C36.9472 19.5639 36.9872 19.5939 37.0272 19.6339L36.9372 19.8139C36.7372 20.0539 36.5172 20.2739 36.2772 20.4739C36.0572 20.6939 35.8172 20.8939 35.5572 21.0739C34.9972 21.4539 34.4272 21.7939 33.8472 22.0939C33.2672 22.3939 32.6772 22.6839 32.0772 22.9639C31.6772 23.1239 31.2872 23.2839 30.9072 23.4439C30.5272 23.6039 30.1372 23.7639 29.7372 23.9239C28.7372 24.3039 27.6772 24.5239 26.5572 24.5839C26.3372 24.6039 26.1172 24.6039 25.8972 24.5839C25.6972 24.5839 25.4872 24.5739 25.2672 24.5539C24.6072 24.5139 23.9772 24.4239 23.3772 24.2839C22.7972 24.1239 22.2272 23.9439 21.6672 23.7439C21.1072 23.5439 20.5672 23.2839 20.0472 22.9639C19.2272 22.4639 18.4672 21.9639 17.7672 21.4639C17.3672 21.1839 16.9772 20.9039 16.5972 20.6239C16.2372 20.3639 15.8572 20.1039 15.4572 19.8439C15.0972 19.6239 14.7272 19.4139 14.3472 19.2139C13.9872 19.0139 13.6072 18.8439 13.2072 18.7039C13.0872 18.6639 12.9672 18.6239 12.8472 18.5839C12.7272 18.5239 12.5872 18.5039 12.4272 18.5239ZM11.7372 18.3739C11.6372 18.3539 11.5472 18.3239 11.4672 18.2839C11.0272 18.2439 10.5872 18.2239 10.1472 18.2239C9.70721 18.2039 9.26721 18.2239 8.82721 18.2839C8.32721 18.3439 7.83721 18.4439 7.35721 18.5839C6.89721 18.7039 6.4372 18.8439 5.9772 19.0039C5.5372 19.1639 5.11721 19.3539 4.71721 19.5739C4.31721 19.8139 3.91721 20.0639 3.51721 20.3239C2.85721 20.7639 2.28721 21.2539 1.80721 21.7939C1.66721 21.9539 1.53721 22.1139 1.41721 22.2739C1.29721 22.4539 1.1972 22.6539 1.1172 22.8739C1.0372 23.1139 1.0372 23.2839 1.1172 23.3839C1.2172 23.4839 1.37721 23.5539 1.59721 23.5939C1.61721 23.6139 1.6372 23.6139 1.6572 23.5939C1.6972 23.5939 1.73721 23.6039 1.77721 23.6239C1.97721 23.6239 2.16721 23.6039 2.34721 23.5639C2.54721 23.5239 2.74721 23.4839 2.94721 23.4439C3.46721 23.2839 3.96721 23.0939 4.44721 22.8739C4.92721 22.6739 5.39721 22.4439 5.85721 22.1839C6.23721 21.9839 6.60721 21.7739 6.96721 21.5539C7.32721 21.3539 7.67721 21.1439 8.01721 20.9239C8.31721 20.7239 8.61721 20.5239 8.91721 20.3239C9.21721 20.1439 9.50721 19.9539 9.78721 19.7539C9.98721 19.6139 10.1772 19.4839 10.3572 19.3639C10.5372 19.2439 10.7272 19.1139 10.9272 18.9739C11.0472 18.8739 11.1672 18.7839 11.2872 18.7039C11.4272 18.6039 11.5772 18.4939 11.7372 18.3739Z" fill="#BB967B"/>
<path d="M63.1342 3.37386C63.5142 3.41386 63.6742 3.63386 63.6142 4.03386C63.5942 4.11386 63.5642 4.18386 63.5242 4.24386C63.5042 4.30386 63.4742 4.36386 63.4342 4.42386C63.2742 4.74386 63.0742 5.03386 62.8342 5.29386C62.6142 5.53386 62.3742 5.76386 62.1142 5.98386C61.6542 6.38386 61.1742 6.76386 60.6742 7.12386C60.1942 7.46386 59.6942 7.79386 59.1742 8.11386C58.5542 8.47386 57.9342 8.83386 57.3142 9.19386C56.7142 9.55386 56.0942 9.90386 55.4542 10.2439C54.7542 10.6439 54.0442 11.0339 53.3242 11.4139C52.6242 11.7739 51.9142 12.1439 51.1942 12.5239C50.9142 12.6639 50.6542 12.8739 50.4142 13.1539C49.9342 13.6539 49.4542 14.1439 48.9742 14.6239C48.5142 15.1039 48.0542 15.6039 47.5942 16.1239C47.2542 16.4839 46.9242 16.8539 46.6042 17.2339C46.3042 17.6139 45.9842 17.9939 45.6442 18.3739C45.3642 18.6939 45.0942 19.0139 44.8342 19.3339C44.5942 19.6539 44.3542 19.9839 44.1142 20.3239C43.8142 20.7239 43.5342 21.1239 43.2742 21.5239C43.0142 21.9439 42.7442 22.3539 42.4642 22.7539C42.1242 23.2939 41.8042 23.8539 41.5042 24.4339C41.2042 25.0139 40.9242 25.5939 40.6642 26.1739C40.4842 26.6139 40.3142 27.0539 40.1542 27.4939C39.9942 27.9539 39.8642 28.4139 39.7642 28.8739C39.7442 28.9939 39.7242 29.1139 39.7042 29.2339C39.7042 29.3739 39.7242 29.5139 39.7642 29.6539C39.8242 29.8539 39.9542 29.9439 40.1542 29.9239C40.3142 29.9039 40.4542 29.8639 40.5742 29.8039C40.6942 29.7439 40.8242 29.6739 40.9642 29.5939C41.2042 29.4339 41.4242 29.2639 41.6242 29.0839C41.8242 28.9239 42.0342 28.7539 42.2542 28.5739C42.7342 28.1339 43.1942 27.6739 43.6342 27.1939C44.0742 26.7339 44.4942 26.2539 44.8942 25.7539C45.7342 24.7139 46.4842 23.6339 47.1442 22.5139C47.8042 21.3939 48.3942 20.2239 48.9142 19.0039C49.0342 18.7039 49.1442 18.4039 49.2442 18.1039C49.3642 17.7839 49.4742 17.4639 49.5742 17.1439C49.5942 17.1039 49.6042 17.0439 49.6042 16.9639C49.5442 16.9439 49.4842 16.9239 49.4242 16.9039C49.3642 16.8839 49.3042 16.8739 49.2442 16.8739C49.0042 16.8139 48.7942 16.6939 48.6142 16.5139C48.4142 16.2939 48.3642 16.0239 48.4642 15.7039C48.5842 15.4039 48.7942 15.1739 49.0942 15.0139C49.5942 14.7939 49.9242 14.9339 50.0842 15.4339C50.1842 15.6739 50.2042 15.8939 50.1442 16.0939C50.1042 16.2739 50.1042 16.4139 50.1442 16.5139C50.3042 16.5339 50.4742 16.5339 50.6542 16.5139C51.1142 16.4339 51.5742 16.3639 52.0342 16.3039C52.4942 16.2439 52.9542 16.1639 53.4142 16.0639C53.8942 15.9639 54.3742 15.8639 54.8542 15.7639C55.3342 15.6639 55.8042 15.5339 56.2642 15.3739C56.2842 15.3739 56.2942 15.3739 56.2942 15.3739C56.2942 15.3539 56.3042 15.3439 56.3242 15.3439C56.3642 15.3639 56.3942 15.3739 56.4142 15.3739C56.4542 15.3739 56.4942 15.3839 56.5342 15.4039C56.5942 15.4639 56.5442 15.5339 56.3842 15.6139C56.2642 15.6539 56.1342 15.6939 55.9942 15.7339C55.8742 15.7739 55.7442 15.8139 55.6042 15.8539C55.2442 15.9539 54.8842 16.0439 54.5242 16.1239C54.1642 16.1839 53.8042 16.2539 53.4442 16.3339C53.0842 16.4139 52.7242 16.4839 52.3642 16.5439C52.0042 16.6039 51.6442 16.6739 51.2842 16.7539C51.1842 16.7739 51.0742 16.7939 50.9542 16.8139C50.8342 16.8139 50.7142 16.8239 50.5942 16.8439C50.4942 16.8639 50.3942 16.8739 50.2942 16.8739C50.2142 16.8739 50.1242 16.8839 50.0242 16.9039C49.9842 17.0039 49.9442 17.1039 49.9042 17.2039C49.8842 17.3039 49.8542 17.4039 49.8142 17.5039C49.6942 17.9639 49.5442 18.4039 49.3642 18.8239C49.1842 19.2439 48.9942 19.6639 48.7942 20.0839C48.5142 20.6839 48.2042 21.2739 47.8642 21.8539C47.5442 22.4539 47.1942 23.0339 46.8142 23.5939C46.4142 24.1939 45.9742 24.8139 45.4942 25.4539C45.2342 25.7939 44.9642 26.1239 44.6842 26.4439C44.4242 26.7639 44.1542 27.0739 43.8742 27.3739C43.5542 27.7139 43.2342 28.0439 42.9142 28.3639C42.5942 28.7039 42.2342 29.0139 41.8342 29.2939C41.6942 29.4539 41.5342 29.5839 41.3542 29.6839C41.1742 29.8039 40.9842 29.9139 40.7842 30.0139C40.7042 30.0739 40.6142 30.1139 40.5142 30.1339C40.4342 30.1739 40.3442 30.2039 40.2442 30.2239C40.0442 30.2839 39.8642 30.2539 39.7042 30.1339C39.5442 30.0339 39.4442 29.8739 39.4042 29.6539C39.3642 29.4139 39.3542 29.1739 39.3742 28.9339C39.4142 28.6939 39.4642 28.4539 39.5242 28.2139C39.7642 27.3139 40.0642 26.4439 40.4242 25.6039C40.5842 25.2439 40.7442 24.8939 40.9042 24.5539C41.0842 24.2139 41.2742 23.8739 41.4742 23.5339C41.6342 23.2739 41.7842 23.0139 41.9242 22.7539C42.0642 22.5139 42.2142 22.2639 42.3742 22.0039C42.7142 21.4839 43.0542 20.9639 43.3942 20.4439C43.7542 19.9239 44.1342 19.4339 44.5342 18.9739C44.6942 18.7539 44.8542 18.5439 45.0142 18.3439C45.1742 18.1439 45.3342 17.9439 45.4942 17.7439C45.7742 17.4439 46.0442 17.1539 46.3042 16.8739C46.5642 16.5739 46.8342 16.2739 47.1142 15.9739C47.3342 15.7139 47.5542 15.4639 47.7742 15.2239C48.0142 14.9639 48.2542 14.7039 48.4942 14.4439C48.6342 14.2839 48.7642 14.1439 48.8842 14.0239C49.0042 13.8839 49.1342 13.7439 49.2742 13.6039C49.2342 13.5439 49.1942 13.5239 49.1542 13.5439C49.1342 13.5639 49.1042 13.5839 49.0642 13.6039C49.0242 13.6039 48.9642 13.6239 48.8842 13.6639C47.6842 14.2239 46.4342 14.7339 45.1342 15.1939C44.5342 15.3939 43.9342 15.5739 43.3342 15.7339C42.7342 15.8939 42.1142 16.0339 41.4742 16.1539C41.1542 16.1939 40.8342 16.2339 40.5142 16.2739C40.2142 16.3139 39.8942 16.3539 39.5542 16.3939C39.4942 16.4939 39.4342 16.6039 39.3742 16.7239C39.3142 16.8239 39.2442 16.9339 39.1642 17.0539C38.8442 17.5939 38.4742 18.0939 38.0542 18.5539C37.6542 18.9939 37.2042 19.4139 36.7042 19.8139C36.1242 20.2539 35.5042 20.5839 34.8442 20.8039C34.5442 20.9039 34.2442 20.9339 33.9442 20.8939C33.4042 20.8339 33.1242 20.5539 33.1042 20.0539C33.0842 19.7939 33.1142 19.5539 33.1942 19.3339C33.2542 19.1139 33.3342 18.8939 33.4342 18.6739C33.9542 17.6739 34.6642 16.7539 35.5642 15.9139C35.6842 15.7939 35.8042 15.6739 35.9242 15.5539C36.0442 15.4339 36.1642 15.3239 36.2842 15.2239C36.3642 15.1639 36.5042 15.0939 36.7042 15.0139C36.7842 14.9739 36.8442 14.9939 36.8842 15.0739C36.9442 15.1739 36.9442 15.2639 36.8842 15.3439C36.8042 15.4239 36.7342 15.4839 36.6742 15.5239C36.4142 15.7239 36.1742 15.9439 35.9542 16.1839C35.7342 16.4239 35.5142 16.6539 35.2942 16.8739C35.0342 17.1539 34.7942 17.4439 34.5742 17.7439C34.3742 18.0439 34.1742 18.3539 33.9742 18.6739C33.8742 18.8339 33.7942 19.0039 33.7342 19.1839C33.6542 19.3439 33.5942 19.5139 33.5542 19.6939C33.5142 19.8539 33.4942 19.9739 33.4942 20.0539C33.4942 20.2739 33.6042 20.4239 33.8242 20.5039C34.0042 20.5839 34.2242 20.6039 34.4842 20.5639C35.0042 20.4439 35.4942 20.2539 35.9542 19.9939C36.3342 19.7739 36.6842 19.5239 37.0042 19.2439C37.3242 18.9439 37.6342 18.6239 37.9342 18.2839C38.1542 18.0239 38.3542 17.7639 38.5342 17.5039C38.7342 17.2239 38.9142 16.9339 39.0742 16.6339C39.0942 16.5939 39.1042 16.5739 39.1042 16.5739C39.1242 16.5539 39.1442 16.5239 39.1642 16.4839C39.1242 16.4039 39.0742 16.3639 39.0142 16.3639C38.9742 16.3639 38.9242 16.3639 38.8642 16.3639C38.5042 16.3639 38.1642 16.3039 37.8442 16.1839C37.6042 16.0839 37.4242 15.9639 37.3042 15.8239C37.1442 15.5839 37.0742 15.3439 37.0942 15.1039C37.1142 14.8439 37.2242 14.6239 37.4242 14.4439C37.8042 14.0239 38.3042 13.8339 38.9242 13.8739C39.3242 13.9139 39.5842 14.1139 39.7042 14.4739C39.8042 14.6939 39.8442 14.9139 39.8242 15.1339C39.8042 15.3339 39.7742 15.5439 39.7342 15.7639C39.7342 15.8039 39.7142 15.8839 39.6742 16.0039C39.7542 16.0639 39.8242 16.0939 39.8842 16.0939C39.9642 16.0939 40.0442 16.0839 40.1242 16.0639C40.4442 16.0239 40.7642 15.9839 41.0842 15.9439C41.4042 15.8839 41.7242 15.8239 42.0442 15.7639C43.7642 15.3839 45.4542 14.8439 47.1142 14.1439C47.5742 13.9439 48.0342 13.7439 48.4942 13.5439C48.9542 13.3239 49.4142 13.1039 49.8742 12.8839C50.0142 12.8039 50.1442 12.7039 50.2642 12.5839C50.7242 12.1239 51.1742 11.6839 51.6142 11.2639C52.0542 10.8239 52.5042 10.3839 52.9642 9.94386C53.3042 9.60386 53.6542 9.28386 54.0142 8.98386C54.3742 8.66386 54.7442 8.34386 55.1242 8.02386C55.6842 7.54386 56.2542 7.08386 56.8342 6.64386C57.4342 6.20386 58.0442 5.78386 58.6642 5.38386C59.0042 5.16386 59.3542 4.95386 59.7142 4.75386C60.0742 4.53386 60.4342 4.32386 60.7942 4.12386C61.0742 3.96386 61.3542 3.82386 61.6342 3.70386C61.9342 3.56386 62.2442 3.46386 62.5642 3.40386C62.6642 3.38386 62.7542 3.37386 62.8342 3.37386C62.9342 3.35386 63.0342 3.35386 63.1342 3.37386ZM39.3142 16.0639C39.5542 15.6039 39.5942 15.1139 39.4342 14.5939C39.3742 14.3339 39.1942 14.2039 38.8942 14.2039C38.4342 14.2039 38.0442 14.3239 37.7242 14.5639C37.3842 14.8039 37.2942 15.1239 37.4542 15.5239C37.5142 15.6439 37.5942 15.7339 37.6942 15.7939C37.7942 15.8539 37.8942 15.9039 37.9942 15.9439C38.3942 16.0839 38.8342 16.1239 39.3142 16.0639ZM48.9442 16.3639C49.1842 16.5239 49.4342 16.5739 49.6942 16.5139C49.8142 16.2539 49.8442 15.9339 49.7842 15.5539C49.7242 15.2939 49.5642 15.2139 49.3042 15.3139C49.0642 15.3739 48.8942 15.5339 48.7942 15.7939C48.6942 16.0139 48.7442 16.2039 48.9442 16.3639ZM62.9542 4.48386C63.0142 4.38386 63.0742 4.29386 63.1342 4.21386C63.1942 4.11386 63.2042 3.99386 63.1642 3.85386C63.0442 3.81386 62.9242 3.80386 62.8042 3.82386C62.7042 3.84386 62.6042 3.87386 62.5042 3.91386C62.2642 4.01386 62.0142 4.11386 61.7542 4.21386C61.5142 4.29386 61.2842 4.40386 61.0642 4.54386C60.8442 4.66386 60.6242 4.78386 60.4042 4.90386C60.1842 5.00386 59.9642 5.12386 59.7442 5.26386C59.5242 5.40386 59.3042 5.55386 59.0842 5.71386C58.8842 5.85386 58.6742 5.99386 58.4542 6.13386C57.8742 6.55386 57.2942 6.98386 56.7142 7.42386C56.1342 7.84386 55.5742 8.29386 55.0342 8.77386C54.5342 9.19386 54.0442 9.63386 53.5642 10.0939C53.0842 10.5339 52.6042 10.9839 52.1242 11.4439C52.0642 11.5039 52.0042 11.5739 51.9442 11.6539C51.8842 11.7139 51.8042 11.7939 51.7042 11.8939C51.8242 11.8739 51.8942 11.8539 51.9142 11.8339L56.0542 9.58386C56.6342 9.24386 57.2042 8.91386 57.7642 8.59386C58.3442 8.25386 58.9142 7.90386 59.4742 7.54386C59.8742 7.28386 60.2542 7.02386 60.6142 6.76386C60.9742 6.50386 61.3242 6.22386 61.6642 5.92386C61.9042 5.70386 62.1342 5.48386 62.3542 5.26386C62.5942 5.02386 62.7942 4.76386 62.9542 4.48386Z" fill="#BB967B"/>
<path d="M74.6121 15.4939C74.6121 15.5539 74.6021 15.5939 74.5821 15.6139C74.5421 15.6339 74.492 15.6539 74.432 15.6739C74.392 15.6939 74.342 15.7139 74.2821 15.7339C74.062 15.8139 73.842 15.8839 73.622 15.9439C73.402 16.0039 73.182 16.0739 72.962 16.1539C72.462 16.3139 71.962 16.5039 71.462 16.7239C70.982 16.9239 70.5121 17.1339 70.0521 17.3539C69.7521 17.4939 69.452 17.6439 69.152 17.8039C68.872 17.9439 68.592 18.0839 68.312 18.2239C68.132 18.3039 68.0021 18.4439 67.9221 18.6439C67.702 19.2639 67.372 19.7939 66.932 20.2339C66.652 20.4939 66.372 20.7339 66.092 20.9539C65.812 21.1939 65.5021 21.4139 65.1621 21.6139C64.9421 21.7339 64.7221 21.8339 64.5021 21.9139C64.3021 22.0139 64.092 22.1139 63.872 22.2139C63.552 22.3139 63.2521 22.3539 62.9721 22.3339C62.8121 22.2939 62.7021 22.2239 62.6421 22.1239C62.5821 22.0239 62.592 21.9039 62.6721 21.7639C62.772 21.6039 62.8721 21.4839 62.9721 21.4039C63.4721 20.9439 64.022 20.5039 64.622 20.0839C65.082 19.7439 65.5421 19.4339 66.0021 19.1539C66.4821 18.8739 66.9721 18.5939 67.4721 18.3139C67.5921 18.2339 67.672 18.1139 67.712 17.9539C67.752 17.7739 67.762 17.5939 67.742 17.4139C67.742 17.2339 67.722 17.0539 67.682 16.8739C67.642 16.6939 67.592 16.5139 67.5321 16.3339C67.4721 16.1539 67.402 15.9639 67.322 15.7639C67.222 15.8239 67.1221 15.8739 67.0221 15.9139C66.9421 15.9539 66.8521 16.0039 66.7521 16.0639C66.1721 16.4039 65.592 16.7439 65.012 17.0839C64.432 17.4039 63.8521 17.7139 63.2721 18.0139C62.7321 18.2939 62.182 18.5539 61.622 18.7939C61.082 19.0339 60.522 19.2539 59.942 19.4539C59.562 19.5739 59.192 19.6839 58.832 19.7839C58.472 19.9039 58.1021 19.9839 57.7221 20.0239C57.5621 20.0439 57.412 20.0539 57.272 20.0539C57.132 20.0739 56.9921 20.0839 56.8521 20.0839C56.7521 20.0639 56.642 20.0439 56.522 20.0239C56.4221 20.0039 56.322 19.9739 56.222 19.9339C55.762 19.7539 55.512 19.3939 55.472 18.8539C55.452 18.7539 55.442 18.6439 55.442 18.5239C55.462 18.4039 55.4821 18.2939 55.5021 18.1939C55.5421 17.8539 55.6221 17.5439 55.7421 17.2639C55.862 16.9639 56.002 16.6639 56.162 16.3639L56.4621 15.7639C56.3621 15.7839 56.282 15.8039 56.222 15.8239C56.162 15.8239 56.1021 15.8239 56.0421 15.8239C56.0021 15.8239 55.9621 15.8039 55.9221 15.7639C55.9221 15.7239 55.942 15.6839 55.982 15.6439L56.342 15.4639C56.622 15.3839 56.832 15.2139 56.972 14.9539C57.132 14.7339 57.2821 14.5239 57.4221 14.3239C57.5821 14.1039 57.742 13.8839 57.902 13.6639C58.482 12.8839 59.092 12.1539 59.732 11.4739C59.932 11.2739 60.122 11.0839 60.302 10.9039C60.502 10.7039 60.692 10.4939 60.872 10.2739C60.892 10.2539 60.952 10.1839 61.052 10.0639C60.712 10.1239 60.382 10.1839 60.062 10.2439C59.7421 10.2839 59.432 10.3439 59.132 10.4239C58.5121 10.5639 57.902 10.7039 57.302 10.8439C56.702 10.9639 56.1021 11.0939 55.5021 11.2339C55.3021 11.2739 55.1121 11.3239 54.9321 11.3839C54.7521 11.4439 54.5721 11.4939 54.3921 11.5339C54.3721 11.5539 54.342 11.5639 54.302 11.5639C54.142 11.7239 53.9721 11.8039 53.7921 11.8039C53.5921 11.8039 53.4121 11.8539 53.2521 11.9539C53.2321 11.9739 53.202 11.9839 53.162 11.9839C53.042 11.9839 52.982 11.9439 52.982 11.8639C52.982 11.8039 53.0021 11.7539 53.0421 11.7139C53.1621 11.6739 53.282 11.6339 53.402 11.5939C53.502 11.5339 53.612 11.4839 53.732 11.4439C53.992 11.3439 54.252 11.2639 54.512 11.2039C54.772 11.1239 55.0421 11.0439 55.3221 10.9639C56.2221 10.7239 57.112 10.5139 57.9921 10.3339C58.8921 10.1339 59.792 9.95386 60.692 9.79386C60.712 9.79386 60.7221 9.79386 60.7221 9.79386C60.7421 9.77386 60.7621 9.76386 60.7821 9.76386C60.9221 9.74386 61.0521 9.73386 61.1721 9.73386C61.312 9.71386 61.4421 9.67386 61.562 9.61386C61.662 9.55386 61.7521 9.48386 61.8321 9.40386C61.9321 9.30386 62.0321 9.20386 62.1321 9.10386C62.5321 8.76386 62.9221 8.42386 63.3021 8.08386C63.6821 7.74386 64.0821 7.42386 64.5021 7.12386C65.1421 6.62386 65.7621 6.15386 66.3621 5.71386C66.8221 5.37386 67.2921 5.06386 67.7721 4.78386C68.2721 4.50386 68.7821 4.23386 69.3021 3.97386C69.4021 3.93386 69.502 3.90386 69.602 3.88386C69.702 3.84386 69.802 3.80386 69.902 3.76386C70.022 3.72386 70.122 3.73386 70.202 3.79386C70.402 3.87386 70.4621 4.00386 70.3821 4.18386C70.3221 4.34386 70.2321 4.49386 70.1121 4.63386C70.0121 4.77386 69.912 4.92386 69.812 5.08386C69.2921 5.76386 68.7521 6.41386 68.1921 7.03386C67.6321 7.63386 67.0421 8.22386 66.4221 8.80386C66.382 8.84386 66.3621 8.88386 66.3621 8.92386C66.4021 8.96386 66.442 8.98386 66.482 8.98386C66.522 8.98386 66.562 8.98386 66.602 8.98386C66.942 8.94386 67.282 8.92386 67.622 8.92386C67.982 8.90386 68.3321 8.91386 68.6721 8.95386C68.832 8.97386 68.982 9.00386 69.122 9.04386C69.262 9.08386 69.382 9.17386 69.482 9.31386C69.522 9.35386 69.542 9.39386 69.542 9.43386C69.542 9.45386 69.552 9.48386 69.572 9.52386C69.572 9.58386 69.542 9.61386 69.482 9.61386C69.382 9.57386 69.3321 9.54386 69.3321 9.52386C69.1921 9.40386 69.0421 9.33386 68.8821 9.31386C68.7421 9.27386 68.592 9.24386 68.432 9.22386C68.132 9.20386 67.8321 9.19386 67.5321 9.19386C67.232 9.19386 66.9321 9.21386 66.6321 9.25386C66.5121 9.27386 66.3821 9.28386 66.2421 9.28386C66.1221 9.28386 66.0121 9.31386 65.9121 9.37386C65.7921 9.43386 65.6721 9.51386 65.5521 9.61386C65.4521 9.69386 65.3421 9.78386 65.2221 9.88386C64.9421 10.1239 64.6621 10.3639 64.3821 10.6039C64.1221 10.8439 63.852 11.0739 63.572 11.2939C62.872 11.8539 62.1521 12.3939 61.412 12.9139C60.672 13.4139 59.9021 13.8939 59.1021 14.3539C58.6621 14.6339 58.1621 14.9039 57.6021 15.1639C57.3421 15.3039 57.1521 15.4839 57.0321 15.7039C56.8721 15.9839 56.712 16.2539 56.552 16.5139C56.412 16.7539 56.282 17.0139 56.162 17.2939C56.002 17.7139 55.892 18.1239 55.832 18.5239C55.812 18.5839 55.802 18.6439 55.802 18.7039C55.822 18.7439 55.832 18.7939 55.832 18.8539C55.852 19.2939 56.0821 19.5739 56.522 19.6939C56.842 19.7939 57.1521 19.8139 57.452 19.7539C57.952 19.7139 58.4421 19.6239 58.9221 19.4839C59.4021 19.3439 59.872 19.1839 60.332 19.0039C61.172 18.7039 61.992 18.3539 62.792 17.9539C63.592 17.5539 64.3821 17.1239 65.1621 16.6639C65.5021 16.4839 65.822 16.3039 66.122 16.1239C66.442 15.9239 66.7721 15.7239 67.1121 15.5239C67.132 15.5239 67.1421 15.5139 67.1421 15.4939C67.162 15.4739 67.192 15.4539 67.232 15.4339V15.1339C67.232 14.6739 67.392 14.2339 67.712 13.8139C68.092 13.3539 68.522 12.9939 69.0021 12.7339C69.4821 12.4739 69.9921 12.2639 70.5321 12.1039C70.632 12.0639 70.7321 12.0439 70.8321 12.0439C70.9521 12.0239 71.0621 12.0039 71.1621 11.9839C71.2021 11.9639 71.262 11.9539 71.342 11.9539C71.6021 11.9739 71.7421 12.0539 71.762 12.1939C71.802 12.3139 71.772 12.4439 71.6721 12.5839C71.592 12.6839 71.502 12.7839 71.402 12.8839C71.322 12.9839 71.2321 13.0739 71.1321 13.1539C70.8721 13.3739 70.602 13.5839 70.322 13.7839C70.062 13.9639 69.792 14.1539 69.512 14.3539C69.252 14.5339 68.9921 14.7039 68.732 14.8639C68.4921 15.0239 68.2421 15.1839 67.982 15.3439C67.942 15.3839 67.9021 15.4139 67.8621 15.4339C67.8221 15.4539 67.782 15.4839 67.742 15.5239C67.802 15.9239 67.892 16.3139 68.012 16.6939C68.132 17.0539 68.1721 17.4539 68.1321 17.8939C68.1921 17.8539 68.2521 17.8339 68.312 17.8339C68.372 17.8139 68.422 17.7839 68.462 17.7439C68.842 17.5639 69.212 17.3839 69.572 17.2039C69.952 17.0239 70.342 16.8439 70.742 16.6639C71.922 16.1639 73.1021 15.7539 74.2821 15.4339C74.342 15.4139 74.4221 15.4039 74.5221 15.4039C74.5821 15.4039 74.6121 15.4339 74.6121 15.4939ZM62.702 9.31386C62.682 9.31386 62.6721 9.32386 62.6721 9.34386V9.43386C62.772 9.41386 62.8721 9.40386 62.9721 9.40386C63.0721 9.40386 63.1721 9.39386 63.2721 9.37386C63.6121 9.33386 63.952 9.29386 64.292 9.25386C64.632 9.19386 64.9721 9.14386 65.312 9.10386C65.5721 9.08386 65.7921 8.98386 65.9721 8.80386C66.6121 8.22386 67.2221 7.61386 67.8021 6.97386C68.3821 6.33386 68.9321 5.66386 69.452 4.96386C69.5321 4.86386 69.6021 4.76386 69.6621 4.66386C69.7421 4.54386 69.822 4.42386 69.902 4.30386C69.362 4.48386 68.862 4.71386 68.402 4.99386C67.962 5.27386 67.5121 5.55386 67.0521 5.83386C66.2921 6.37386 65.5521 6.93386 64.8321 7.51386C64.1121 8.07386 63.4021 8.67386 62.702 9.31386ZM57.812 14.5639C57.772 14.6039 57.722 14.6939 57.662 14.8339C58.022 14.6739 58.352 14.5039 58.652 14.3239C58.972 14.1439 59.272 13.9639 59.552 13.7839C60.572 13.1639 61.532 12.5039 62.432 11.8039C63.352 11.1039 64.2521 10.3639 65.1321 9.58386C65.1321 9.58386 65.1521 9.53386 65.1921 9.43386H65.012C64.592 9.49386 64.1621 9.55386 63.7221 9.61386C63.3021 9.67386 62.882 9.73386 62.462 9.79386C62.182 9.83386 61.9521 9.94386 61.7721 10.1239C61.2521 10.6439 60.7421 11.1639 60.2421 11.6839C59.7421 12.2039 59.262 12.7439 58.802 13.3039C58.622 13.5239 58.4521 13.7339 58.2921 13.9339C58.1321 14.1339 57.972 14.3439 57.812 14.5639ZM67.682 15.1339C67.782 15.0939 67.912 15.0339 68.072 14.9539C68.352 14.7739 68.6221 14.5939 68.8821 14.4139C69.1421 14.2339 69.4021 14.0539 69.6621 13.8739C70.0421 13.6139 70.4221 13.3239 70.8021 13.0039C70.8821 12.9439 70.952 12.8739 71.012 12.7939C71.092 12.7139 71.1721 12.6339 71.2521 12.5539C71.272 12.5339 71.302 12.4639 71.342 12.3439C71.122 12.3239 70.902 12.3639 70.682 12.4639C70.262 12.6039 69.862 12.7739 69.482 12.9739C69.1021 13.1739 68.742 13.4139 68.402 13.6939C68.102 13.9339 67.872 14.2539 67.712 14.6539C67.672 14.7339 67.642 14.8139 67.622 14.8939C67.622 14.9539 67.642 15.0339 67.682 15.1339ZM66.6321 19.9339C66.9521 19.5739 67.2221 19.1939 67.4421 18.7939C67.3621 18.8139 67.292 18.8239 67.232 18.8239L66.062 19.5439C65.6821 19.8039 65.302 20.0539 64.9221 20.2939C64.562 20.5539 64.212 20.8239 63.872 21.1039C63.752 21.2039 63.632 21.3039 63.512 21.4039C63.392 21.5239 63.282 21.6439 63.182 21.7639C63.162 21.7639 63.132 21.8139 63.092 21.9139C63.192 21.9539 63.2721 21.9639 63.3321 21.9439C63.3921 21.9439 63.462 21.9339 63.542 21.9139C63.642 21.8739 63.7421 21.8339 63.842 21.7939C63.962 21.7539 64.0721 21.7139 64.1721 21.6739C65.1521 21.2339 65.9721 20.6539 66.6321 19.9339Z" fill="#BB967B"/>
</svg>
