<svg width="376" height="167" viewBox="0 0 376 167" fill="none" xmlns="http://www.w3.org/2000/svg">
<path d="M108.706 20.99C110.226 20.8634 111.62 20.6734 112.886 20.42C114.28 20.04 115.673 19.7234 117.066 19.47C120.486 18.71 123.906 18.0134 127.326 17.38C130.746 16.62 134.166 15.9234 137.586 15.29C139.233 14.91 140.563 14.2134 141.576 13.2C143.603 11.0467 145.63 8.95669 147.656 6.93002C149.81 4.90336 152.026 2.87669 154.306 0.850023C154.433 0.723358 154.75 0.533359 155.256 0.280029C156.016 1.16669 156.016 1.99003 155.256 2.75003C154.876 3.13003 154.496 3.57336 154.116 4.08003C153.736 4.46003 153.356 4.84003 152.976 5.22002C151.963 6.23336 150.95 7.24669 149.936 8.26003C149.05 9.27336 148.1 10.2867 147.086 11.3C146.833 11.5534 146.516 11.87 146.136 12.25C145.883 12.63 145.63 12.9467 145.376 13.2C145.63 13.58 145.883 13.77 146.136 13.77C146.516 13.6434 146.833 13.58 147.086 13.58H148.606C151.266 13.2 153.926 12.82 156.586 12.44C159.373 12.06 162.16 11.7434 164.946 11.49C167.226 11.2367 169.506 11.11 171.786 11.11C174.066 10.9834 176.346 10.7934 178.626 10.54C180.906 10.2867 183.186 10.16 185.466 10.16C187.873 10.16 190.216 10.2234 192.496 10.35C193.51 10.35 194.523 10.4134 195.536 10.54C196.55 10.54 197.563 10.54 198.576 10.54C199.97 10.54 201.3 10.6034 202.566 10.73C203.833 10.73 205.163 10.73 206.556 10.73C209.723 10.8567 212.826 11.0467 215.866 11.3C219.033 11.4267 222.2 11.8067 225.366 12.44C226.253 12.5667 227.076 12.7567 227.836 13.01C228.723 13.1367 229.483 13.5167 230.116 14.15C231.383 15.1634 231.7 16.43 231.066 17.95C230.94 18.0767 230.876 18.2034 230.876 18.33C230.876 18.33 230.813 18.3934 230.686 18.52C230.053 19.66 229.42 19.9134 228.786 19.28C228.406 19.0267 228.216 18.7734 228.216 18.52C228.343 18.14 228.533 17.8234 228.786 17.57C228.786 17.3167 228.786 17.1267 228.786 17C228.913 16.7467 228.976 16.4934 228.976 16.24C228.596 16.1134 228.216 15.9867 227.836 15.86C227.583 15.7334 227.266 15.6067 226.886 15.48C226 15.2267 225.176 15.0367 224.416 14.91C223.656 14.7834 222.833 14.6567 221.946 14.53C219.16 14.15 216.373 13.8967 213.586 13.77C210.8 13.6434 208.013 13.5167 205.226 13.39C202.313 13.2634 199.4 13.2634 196.486 13.39C193.573 13.39 190.66 13.3267 187.746 13.2C182.68 13.2 177.613 13.39 172.546 13.77C169.886 14.0234 167.226 14.2767 164.566 14.53C161.906 14.7834 159.246 15.0367 156.586 15.29C154.433 15.5434 152.216 15.86 149.936 16.24C147.783 16.4934 145.566 16.7467 143.286 17C142.02 17.2534 141.07 17.76 140.436 18.52C139.17 19.9134 137.903 21.3067 136.636 22.7C135.37 23.9667 134.103 25.2967 132.836 26.69C131.443 28.0834 130.05 29.54 128.656 31.06C127.39 32.4534 126.06 33.8467 124.666 35.24C123.4 36.6334 122.133 37.9634 120.866 39.23C119.726 40.37 118.586 41.6367 117.446 43.03C116.94 43.5367 116.56 44.2334 116.306 45.12C115.293 48.6667 113.9 52.0234 112.126 55.19C110.48 58.3567 108.58 61.46 106.426 64.5C104.273 67.7934 101.993 70.96 99.5863 74C97.3062 77.04 94.8996 80.0167 92.3663 82.93C90.7196 84.83 89.0729 86.73 87.4263 88.63C85.7796 90.4034 84.0696 92.1767 82.2963 93.95C79.3829 97.2434 76.4063 100.473 73.3662 103.64C70.3263 106.807 67.1596 109.973 63.8663 113.14C60.9529 115.927 58.0396 118.713 55.1263 121.5C52.2129 124.287 49.2363 127.073 46.1963 129.86C43.1563 132.647 40.0529 135.37 36.8862 138.03C33.8463 140.69 30.8063 143.35 27.7663 146.01C24.8529 148.417 22.0029 150.76 19.2163 153.04C16.5563 155.447 13.7696 157.853 10.8563 160.26C9.71625 161.273 8.51292 162.16 7.24625 162.92C6.10625 163.807 4.90292 164.757 3.63625 165.77C3.38292 166.023 2.87625 166.277 2.11625 166.53C1.48292 166.783 1.03958 166.783 0.78625 166.53C0.532917 166.023 0.40625 165.453 0.40625 164.82C0.40625 164.567 0.659583 164.06 1.16625 163.3C2.30625 161.653 3.44625 160.007 4.58625 158.36C5.72625 156.713 6.92958 155.067 8.19625 153.42C9.84292 151.267 11.4263 149.24 12.9462 147.34C14.5929 145.44 16.3029 143.477 18.0763 141.45C20.2296 138.917 22.4463 136.447 24.7263 134.04C27.0063 131.633 29.2863 129.163 31.5663 126.63C34.8596 123.083 38.0896 119.6 41.2563 116.18C44.5496 112.76 47.8429 109.34 51.1363 105.92C52.5296 104.4 53.9863 102.88 55.5063 101.36C57.0263 99.84 58.4829 98.32 59.8763 96.8C61.7763 94.9 63.6763 93 65.5763 91.1C67.4763 89.0734 69.3129 87.11 71.0863 85.21C72.9863 83.31 74.8863 81.41 76.7863 79.51C78.6863 77.61 80.5229 75.71 82.2963 73.81C84.3229 71.7834 86.2863 69.82 88.1862 67.92C90.0863 65.8934 92.0496 63.93 94.0763 62.03C95.2163 60.89 96.3563 59.75 97.4963 58.61C98.6363 57.47 99.7129 56.33 100.726 55.19C102.12 53.7967 103.45 52.53 104.716 51.39C105.983 50.1234 107.313 48.7934 108.706 47.4C109.466 46.64 110.163 45.88 110.796 45.12C111.556 44.36 112.316 43.6 113.076 42.84C113.583 42.46 113.963 41.8267 114.216 40.94C114.47 37.9 114.216 35.05 113.456 32.39C112.696 29.73 111.176 27.3234 108.896 25.17C107.883 24.2834 106.806 24.03 105.666 24.41C103.133 25.0434 100.536 25.6767 97.8763 26.31C95.3429 26.9434 92.8096 27.5767 90.2763 28.21C87.9963 28.8434 85.7162 29.4767 83.4362 30.11C81.1563 30.7434 78.9396 31.3767 76.7863 32.01C73.7463 32.77 70.7063 33.5934 67.6663 34.48C64.6263 35.3667 61.5863 36.2534 58.5463 37.14C56.3929 37.7734 54.3029 38.3434 52.2762 38.85C50.3763 39.3567 48.3496 39.9267 46.1963 40.56C44.4229 41.0667 42.7129 41.5734 41.0663 42.08C39.5463 42.5867 37.8996 43.0934 36.1263 43.6C33.5929 44.36 31.0596 45.12 28.5263 45.88C25.9929 46.5134 23.4596 47.1467 20.9263 47.78C19.9129 48.0334 18.7729 48.2867 17.5063 48.54C16.3662 48.6667 15.2263 48.8567 14.0863 49.11C12.3129 49.3634 10.6663 49.3 9.14625 48.92C7.37292 48.6667 6.80292 47.6534 7.43625 45.88C7.56292 45.2467 7.94292 44.6134 8.57625 43.98C9.96958 42.46 11.6163 40.94 13.5163 39.42C15.6696 37.6467 17.8863 36.0634 20.1663 34.67C22.5729 33.2767 25.0429 31.8834 27.5763 30.49C30.2363 29.0967 32.8963 27.7667 35.5563 26.5C38.3429 25.1067 41.1929 23.9034 44.1063 22.89C48.9196 21.1167 53.7963 19.5967 58.7363 18.33C63.6763 17.0634 68.8063 16.1767 74.1263 15.67C75.8996 15.4167 77.7363 15.2267 79.6363 15.1C81.5363 14.9734 83.4363 15.0367 85.3363 15.29C86.7296 15.4167 88.0596 15.48 89.3263 15.48C90.7196 15.48 92.1129 15.6067 93.5062 15.86C95.9129 16.24 98.1929 16.7467 100.346 17.38C102.626 17.8867 104.843 18.7734 106.996 20.04C107.756 20.5467 108.326 20.8634 108.706 20.99ZM4.58625 161.97L4.96625 162.35C5.21958 162.097 5.53625 161.843 5.91625 161.59C6.29625 161.337 6.67625 161.083 7.05625 160.83C8.06958 160.07 9.08292 159.247 10.0963 158.36C11.1096 157.6 12.1229 156.777 13.1363 155.89C15.7963 153.61 18.4563 151.33 21.1163 149.05C23.7763 146.897 26.4363 144.68 29.0963 142.4C31.6296 140.12 34.1629 137.84 36.6963 135.56C39.2296 133.407 41.7629 131.19 44.2962 128.91C46.5763 126.883 48.7929 124.857 50.9463 122.83C53.0996 120.677 55.2529 118.523 57.4063 116.37C62.9796 111.05 68.3629 105.667 73.5563 100.22C78.7496 94.7734 83.8163 89.0734 88.7563 83.12C91.2896 80.2067 93.7596 77.23 96.1663 74.19C98.6996 71.15 101.043 67.9834 103.196 64.69C104.463 62.6634 105.666 60.7 106.806 58.8C107.946 56.7734 109.086 54.81 110.226 52.91C110.48 52.4034 110.67 51.96 110.796 51.58C111.05 51.0734 111.176 50.5034 111.176 49.87C110.543 50.3767 109.973 50.82 109.466 51.2C108.96 51.58 108.453 52.0234 107.946 52.53C105.286 55.19 102.626 57.85 99.9663 60.51C97.4329 63.17 94.8363 65.83 92.1763 68.49C90.7829 70.01 89.3263 71.53 87.8063 73.05C86.2863 74.4434 84.8296 75.9 83.4362 77.42C81.6629 79.1934 79.9529 80.9667 78.3063 82.74C76.6596 84.5134 74.9496 86.2867 73.1763 88.06L63.2963 97.94C60.7629 100.6 58.2296 103.26 55.6963 105.92C53.1629 108.453 50.6296 111.05 48.0963 113.71C47.0829 114.723 46.0063 115.8 44.8663 116.94C43.7263 117.953 42.5863 119.03 41.4463 120.17C38.9129 122.703 36.4429 125.3 34.0363 127.96C31.7563 130.62 29.3496 133.217 26.8163 135.75C23.7763 139.043 20.7996 142.337 17.8863 145.63C14.9729 148.923 12.1229 152.28 9.33625 155.7C8.44958 156.713 7.62625 157.727 6.86625 158.74C6.10625 159.88 5.34625 160.957 4.58625 161.97ZM104.336 22.13C103.323 21.4967 102.373 21.0534 101.486 20.8C100.6 20.42 99.7129 20.1034 98.8262 19.85C95.4063 18.9634 91.9863 18.3934 88.5663 18.14C86.7929 17.8867 84.9563 17.8234 83.0563 17.95C81.2829 17.95 79.5096 18.0134 77.7363 18.14C75.3296 18.2667 72.9229 18.52 70.5163 18.9C68.2362 19.1534 65.8296 19.5334 63.2963 20.04C60.0029 20.8 56.7729 21.6234 53.6063 22.51C50.5663 23.3967 47.4629 24.41 44.2962 25.55C42.1429 26.31 40.0529 27.1334 38.0263 28.02C35.9996 28.9067 33.9096 29.8567 31.7563 30.87C29.6029 32.01 27.3863 33.2134 25.1063 34.48C22.9529 35.62 20.7996 36.8867 18.6462 38.28C17.2529 39.2934 15.8596 40.3067 14.4663 41.32C13.0729 42.3334 11.7429 43.5367 10.4763 44.93C10.2229 45.1834 9.96958 45.5 9.71625 45.88C9.58958 46.1334 9.65292 46.5134 9.90625 47.02C11.1729 47.02 12.3763 47.02 13.5163 47.02C14.7829 46.8934 15.9863 46.7034 17.1263 46.45C21.0529 45.4367 24.9163 44.4234 28.7163 43.41C32.5163 42.3967 36.3163 41.3834 40.1163 40.37C42.5229 39.7367 44.8029 39.04 46.9562 38.28C49.2363 37.52 51.5163 36.8234 53.7963 36.19C58.3563 34.7967 62.8529 33.4667 67.2863 32.2C71.8463 30.9334 76.4063 29.6667 80.9663 28.4C84.2596 27.3867 87.4896 26.5 90.6563 25.74C93.8229 24.98 97.0529 24.1567 100.346 23.27C101.36 23.1434 102.69 22.7634 104.336 22.13ZM117.256 37.52C117.383 37.52 117.446 37.5834 117.446 37.71C117.573 37.71 117.7 37.71 117.826 37.71C118.46 37.0767 119.093 36.4434 119.726 35.81C120.486 35.1767 121.183 34.5434 121.816 33.91C124.096 31.3767 126.376 28.9067 128.656 26.5C131.063 24.0934 133.406 21.6234 135.686 19.09V18.71V18.33C132.013 18.71 128.34 19.3434 124.666 20.23C120.993 21.1167 117.32 21.8767 113.646 22.51C113.266 22.51 112.57 22.7634 111.556 23.27C113.203 25.4234 114.596 27.64 115.736 29.92C116.876 32.2 117.383 34.7334 117.256 37.52Z" fill="#574A40"/>
<path d="M173.845 104.59C174.732 103.83 175.618 103.83 176.505 104.59C175.872 105.477 175.112 106.237 174.225 106.87C173.465 107.377 172.705 107.947 171.945 108.58C170.932 109.213 169.982 109.91 169.095 110.67C168.335 111.303 167.448 111.937 166.435 112.57C165.042 113.583 163.585 114.66 162.065 115.8C160.672 116.813 159.278 117.89 157.885 119.03C156.492 120.043 155.162 121.057 153.895 122.07C152.628 122.957 151.298 123.907 149.905 124.92C145.978 127.833 141.925 130.43 137.745 132.71C133.692 134.99 129.385 137.017 124.825 138.79L122.545 139.93C120.138 140.943 117.732 141.703 115.325 142.21C113.045 142.717 110.638 142.843 108.105 142.59C104.305 142.337 101.392 140.817 99.3651 138.03C97.9717 136.003 97.1484 133.66 96.8951 131C96.6417 128.593 96.7684 126.313 97.2751 124.16C97.9084 121.88 98.6684 119.663 99.5551 117.51C102.215 111.05 106.078 105.287 111.145 100.22L116.845 94.52C117.732 93.6334 118.682 92.8734 119.695 92.24C120.708 91.48 121.722 90.7834 122.735 90.15C123.242 89.8967 123.685 89.58 124.065 89.2C126.978 86.92 130.082 85.21 133.375 84.07C135.402 83.4367 137.238 83.1834 138.885 83.31C139.392 83.31 139.772 83.2467 140.025 83.12C141.545 82.9934 142.875 83.31 144.015 84.07C145.155 84.83 145.915 85.9067 146.295 87.3C146.422 88.06 146.422 88.7567 146.295 89.39C146.042 90.7834 145.598 92.05 144.965 93.19C144.332 94.33 143.572 95.4067 142.685 96.42C141.165 98.32 139.328 100.22 137.175 102.12C136.542 102.753 135.908 103.323 135.275 103.83C134.768 104.337 134.198 104.843 133.565 105.35C131.792 106.743 130.018 108.073 128.245 109.34C126.598 110.607 124.762 111.747 122.735 112.76C121.722 113.393 120.645 113.9 119.505 114.28C118.365 114.66 117.225 115.04 116.085 115.42C115.198 115.673 114.375 115.863 113.615 115.99C112.855 115.99 112.032 115.99 111.145 115.99C109.498 115.863 108.042 115.04 106.775 113.52C106.522 114.027 106.268 114.407 106.015 114.66C105.762 114.913 105.508 115.23 105.255 115.61C104.368 117.383 103.545 119.157 102.785 120.93C102.025 122.577 101.518 124.35 101.265 126.25C101.138 126.63 101.075 126.947 101.075 127.2C101.075 127.453 101.012 127.707 100.885 127.96C100.252 129.733 100.125 131.38 100.505 132.9C101.012 134.42 101.772 135.877 102.785 137.27C103.545 138.41 104.748 139.17 106.395 139.55C108.422 140.183 110.385 140.31 112.285 139.93C114.312 139.677 116.338 139.233 118.365 138.6C120.772 137.967 123.052 137.143 125.205 136.13C127.358 135.117 129.512 134.103 131.665 133.09C135.085 131.443 138.315 129.67 141.355 127.77C144.522 125.743 147.562 123.653 150.475 121.5C153.262 119.6 155.985 117.7 158.645 115.8C161.432 113.773 164.155 111.747 166.815 109.72C168.082 108.833 169.285 108.01 170.425 107.25C171.565 106.363 172.705 105.477 173.845 104.59ZM108.295 111.24C108.042 112 108.232 112.57 108.865 112.95C109.372 113.33 109.878 113.583 110.385 113.71C111.018 113.837 111.715 113.963 112.475 114.09C112.982 113.963 113.552 113.9 114.185 113.9C114.818 113.773 115.452 113.583 116.085 113.33C120.012 111.683 123.495 109.783 126.535 107.63C128.182 106.363 129.765 105.097 131.285 103.83C132.932 102.563 134.452 101.233 135.845 99.84C138.252 97.18 140.278 94.52 141.925 91.86C142.178 91.3534 142.368 90.91 142.495 90.53C142.622 90.0234 142.748 89.5167 142.875 89.01C143.255 88.1234 142.938 87.5534 141.925 87.3C140.658 86.92 139.518 86.7934 138.505 86.92C136.605 87.4267 134.832 88.1234 133.185 89.01C131.538 89.77 129.892 90.5934 128.245 91.48C127.105 92.1134 126.028 92.9367 125.015 93.95C124.002 94.8367 122.988 95.66 121.975 96.42C120.962 97.18 120.012 98.0034 119.125 98.89C118.238 99.65 117.352 100.537 116.465 101.55C115.705 102.437 114.882 103.323 113.995 104.21C113.235 105.097 112.412 105.983 111.525 106.87C111.018 107.377 110.385 108.137 109.625 109.15C108.992 110.037 108.548 110.733 108.295 111.24Z" fill="#574A40"/>
<path d="M375.975 104.21C375.975 104.717 375.912 104.97 375.785 104.97C375.025 105.983 374.392 106.68 373.885 107.06C370.972 109.593 367.995 111.937 364.955 114.09C361.915 116.117 358.749 118.017 355.455 119.79C352.542 121.437 349.629 123.02 346.715 124.54C343.802 125.933 340.762 127.263 337.595 128.53C336.202 129.163 334.809 129.543 333.415 129.67C331.262 129.923 330.059 128.973 329.805 126.82C329.552 125.427 329.552 124.16 329.805 123.02C330.059 121.753 330.375 120.55 330.755 119.41C331.135 118.27 331.515 117.13 331.895 115.99C332.149 115.23 332.339 114.47 332.465 113.71C332.719 112.823 332.972 112 333.225 111.24C333.479 110.227 333.605 109.467 333.605 108.96C333.859 107.187 333.099 106.427 331.325 106.68C330.185 106.68 329.045 106.87 327.905 107.25C325.752 107.883 323.725 108.58 321.825 109.34C319.925 110.1 317.962 110.923 315.935 111.81C314.542 112.443 313.085 113.14 311.565 113.9C310.172 114.66 308.779 115.357 307.385 115.99C306.245 116.497 305.042 116.877 303.775 117.13C302.889 117.383 302.192 117.32 301.685 116.94C301.179 116.433 301.052 115.673 301.305 114.66C301.559 114.027 301.749 113.393 301.875 112.76C302.129 112 302.445 111.303 302.825 110.67C304.219 108.01 305.549 105.35 306.815 102.69C308.082 100.03 309.412 97.4334 310.805 94.9C311.059 94.2667 311.312 93.76 311.565 93.38C311.819 92.8734 312.072 92.3034 312.325 91.67C312.452 91.4167 312.515 91.2267 312.515 91.1C312.515 90.8467 312.579 90.5934 312.705 90.34C312.072 89.96 311.502 89.8334 310.995 89.96C310.615 89.96 310.235 90.0867 309.855 90.34C308.715 90.8467 307.575 91.3534 306.435 91.86C305.295 92.3667 304.219 92.9367 303.205 93.57C299.532 95.7234 295.922 97.94 292.375 100.22C288.955 102.5 285.535 104.907 282.115 107.44C277.682 110.733 273.249 114.09 268.815 117.51C264.509 120.803 260.139 124.16 255.705 127.58L236.895 142.4C236.515 142.653 236.072 142.907 235.565 143.16C235.185 143.54 234.742 143.92 234.235 144.3C233.982 144.047 233.729 143.857 233.475 143.73C233.349 143.73 233.222 143.603 233.095 143.35C232.969 143.097 233.032 142.653 233.285 142.02C233.539 141.513 234.045 140.88 234.805 140.12C236.072 138.6 237.275 137.08 238.415 135.56C239.555 134.04 240.822 132.583 242.215 131.19C244.495 128.53 246.775 125.87 249.055 123.21C251.462 120.55 253.932 117.953 256.465 115.42C258.239 113.267 260.075 111.24 261.975 109.34C263.875 107.313 265.775 105.287 267.675 103.26C269.195 101.613 270.652 100.03 272.045 98.51C273.565 96.8634 275.085 95.2167 276.605 93.57C278.632 91.5434 280.659 89.58 282.685 87.68C284.712 85.6534 286.739 83.5634 288.765 81.41C290.665 79.51 292.502 77.61 294.275 75.71C296.175 73.81 298.075 71.91 299.975 70.01C299.722 69.7567 299.469 69.6934 299.215 69.82C299.089 69.9467 298.962 70.0734 298.835 70.2C297.822 70.58 296.935 71.15 296.175 71.91C293.135 74.0634 290.095 76.1534 287.055 78.18C284.142 80.2067 281.229 82.2967 278.315 84.45C275.402 86.4767 272.552 88.5034 269.765 90.53C267.105 92.43 264.319 94.3934 261.405 96.42C257.732 98.9534 254.122 101.487 250.575 104.02C247.029 106.553 243.419 109.087 239.745 111.62C235.692 114.28 231.639 116.94 227.585 119.6C223.659 122.133 219.605 124.54 215.425 126.82C213.905 127.707 212.322 128.53 210.675 129.29C209.029 129.923 207.319 130.493 205.545 131C204.912 131.127 204.279 131.19 203.645 131.19C203.012 131.317 202.379 131.443 201.745 131.57C198.832 131.57 196.805 130.24 195.665 127.58C194.525 125.047 194.145 122.703 194.525 120.55C194.652 119.157 194.842 117.827 195.095 116.56C195.475 115.293 195.855 113.963 196.235 112.57C196.362 111.937 196.425 111.303 196.425 110.67C196.552 110.037 196.742 109.34 196.995 108.58C196.742 108.707 196.489 108.77 196.235 108.77C196.109 108.77 195.919 108.833 195.665 108.96C194.779 109.593 193.892 110.163 193.005 110.67C192.245 111.177 191.485 111.747 190.725 112.38C187.432 114.913 184.075 117.383 180.655 119.79C177.362 122.07 173.879 124.287 170.205 126.44C168.305 127.453 166.405 128.15 164.505 128.53C163.112 128.783 162.035 128.467 161.275 127.58C160.515 126.693 160.262 125.553 160.515 124.16C161.149 121.88 161.972 119.79 162.985 117.89C164.632 115.103 166.405 112.633 168.305 110.48C170.585 107.947 172.929 105.603 175.335 103.45C177.869 101.17 180.592 99.1434 183.505 97.37C186.292 95.7234 189.205 94.6467 192.245 94.14C196.552 93.38 199.592 94.2667 201.365 96.8C203.139 99.2067 203.835 101.993 203.455 105.16C203.329 105.793 203.202 106.363 203.075 106.87C202.949 107.25 202.759 107.757 202.505 108.39C202.125 109.403 201.745 110.417 201.365 111.43C200.985 112.443 200.605 113.457 200.225 114.47C199.465 114.85 199.085 114.597 199.085 113.71C199.085 113.203 199.212 112.443 199.465 111.43C199.719 110.67 199.972 109.973 200.225 109.34C200.479 108.58 200.732 107.82 200.985 107.06C201.619 104.907 201.555 102.817 200.795 100.79C199.655 97.75 197.502 96.3567 194.335 96.61C192.942 96.7367 191.612 97.0534 190.345 97.56C189.205 97.94 188.002 98.4467 186.735 99.08C182.429 101.233 178.375 104.21 174.575 108.01C172.929 109.657 171.345 111.367 169.825 113.14C168.305 114.913 166.975 116.813 165.835 118.84C165.455 119.473 165.075 120.107 164.695 120.74C164.315 121.373 163.999 122.007 163.745 122.64C163.112 123.653 162.985 124.793 163.365 126.06C164.125 126.187 164.759 126.187 165.265 126.06C165.899 125.933 166.532 125.743 167.165 125.49C168.939 124.73 170.585 123.907 172.105 123.02C173.625 122.007 175.082 120.993 176.475 119.98C178.882 118.333 181.225 116.687 183.505 115.04C185.912 113.393 188.319 111.683 190.725 109.91C191.359 109.53 191.929 109.15 192.435 108.77C193.069 108.263 193.702 107.82 194.335 107.44C194.715 107.187 195.095 107.06 195.475 107.06C195.855 106.933 196.172 106.807 196.425 106.68C198.325 106.047 199.149 106.743 198.895 108.77C198.769 109.403 198.642 110.1 198.515 110.86C198.389 111.493 198.199 112.127 197.945 112.76C197.692 113.773 197.439 114.787 197.185 115.8C196.932 116.813 196.679 117.827 196.425 118.84C196.045 120.107 195.919 121.373 196.045 122.64C196.172 123.78 196.362 124.92 196.615 126.06C197.629 129.227 199.845 130.557 203.265 130.05C204.659 129.797 205.989 129.48 207.255 129.1C208.522 128.593 209.852 128.023 211.245 127.39C214.032 125.997 216.755 124.54 219.415 123.02C222.202 121.373 224.925 119.663 227.585 117.89C230.119 116.117 232.715 114.407 235.375 112.76C238.035 111.113 240.632 109.403 243.165 107.63C246.459 105.35 249.689 103.07 252.855 100.79C256.022 98.3834 259.252 96.04 262.545 93.76L282.495 79.51C283.889 78.4967 285.282 77.4834 286.675 76.47C288.069 75.33 289.462 74.2534 290.855 73.24C292.755 71.8467 294.655 70.5167 296.555 69.25C298.455 67.9834 300.419 66.7167 302.445 65.45C303.205 64.8167 304.029 64.4367 304.915 64.31C305.549 64.1834 305.992 64.3734 306.245 64.88C306.625 65.26 306.689 65.7667 306.435 66.4C305.929 67.4134 305.485 68.1734 305.105 68.68C304.219 69.6934 303.332 70.6434 302.445 71.53C301.685 72.4167 300.862 73.3034 299.975 74.19C298.582 75.71 297.125 77.1667 295.605 78.56C294.085 79.9534 292.629 81.3467 291.235 82.74C288.955 85.2734 286.612 87.7434 284.205 90.15C281.925 92.43 279.645 94.8367 277.365 97.37C276.352 98.3834 275.339 99.46 274.325 100.6C273.312 101.613 272.299 102.627 271.285 103.64C270.272 104.78 269.195 105.983 268.055 107.25C266.915 108.39 265.839 109.53 264.825 110.67L248.865 127.77C248.105 128.53 247.345 129.353 246.585 130.24C245.825 131 245.065 131.76 244.305 132.52C243.925 132.9 243.355 133.597 242.595 134.61C243.102 134.863 243.609 134.737 244.115 134.23C245.889 132.837 247.662 131.443 249.435 130.05C251.335 128.657 253.172 127.263 254.945 125.87C258.999 122.703 262.989 119.6 266.915 116.56C270.969 113.393 275.022 110.29 279.075 107.25C282.749 104.59 286.359 101.993 289.905 99.46C293.579 96.9267 297.379 94.52 301.305 92.24C302.065 91.86 302.825 91.48 303.585 91.1C304.345 90.5934 305.105 90.15 305.865 89.77C307.385 89.01 308.969 88.44 310.615 88.06C312.262 87.4267 313.529 87.5534 314.415 88.44C315.175 89.4534 315.239 90.72 314.605 92.24C314.479 92.62 314.289 93.0634 314.035 93.57C313.402 94.9634 312.705 96.3567 311.945 97.75C311.185 99.1434 310.425 100.537 309.665 101.93L303.965 112.76C303.839 113.14 303.649 113.837 303.395 114.85C303.902 115.103 304.472 115.103 305.105 114.85C306.499 114.217 307.892 113.583 309.285 112.95C310.679 112.317 312.072 111.683 313.465 111.05C315.365 110.163 317.202 109.34 318.975 108.58C320.875 107.693 322.839 106.807 324.865 105.92C326.005 105.413 327.145 105.033 328.285 104.78C329.552 104.4 330.819 104.337 332.085 104.59C334.239 104.843 335.505 105.857 335.885 107.63C336.265 108.77 336.265 110.037 335.885 111.43L333.035 120.55C332.782 121.31 332.529 122.07 332.275 122.83C332.022 123.59 331.959 124.413 332.085 125.3C332.085 127.2 332.845 127.833 334.365 127.2C336.139 126.82 337.785 126.25 339.305 125.49C341.965 124.223 344.562 122.957 347.095 121.69C349.755 120.423 352.415 119.093 355.075 117.7C357.609 116.307 360.015 114.85 362.295 113.33C364.575 111.81 366.855 110.227 369.135 108.58C370.149 107.947 371.099 107.313 371.985 106.68C372.999 106.047 373.885 105.223 374.645 104.21L374.835 104.02C375.089 104.147 375.469 104.21 375.975 104.21ZM241.455 136.13C241.709 135.877 241.835 135.75 241.835 135.75H241.455C241.329 135.75 241.265 135.813 241.265 135.94L241.455 136.13Z" fill="#574A40"/>
</svg>
