<svg width="65" height="65" viewBox="0 0 65 65" fill="none" xmlns="http://www.w3.org/2000/svg">
<path fill-rule="evenodd" clip-rule="evenodd" d="M45.5956 18.8309H59.4559V4.97059H45.5956V18.8309ZM5.06618 59.3603V4.97059C35.0809 4.97059 59.4559 29.3456 59.4559 59.3603H5.06618ZM0 0V65H65V0H0Z" fill="white"/>
<path fill-rule="evenodd" clip-rule="evenodd" d="M44.3053 51.4195H40.6099L40.1683 52.3285H41.451L40.3547 54.8769H41.7063C41.7741 54.7068 41.9863 54.1887 42.2158 53.6706C42.4958 53.0674 42.7931 52.3706 42.8868 52.3285H43.9058L44.3053 51.4195ZM39.2592 52.6516C39.2334 52.5665 39.1913 52.4815 39.1407 52.3706C39.0977 52.2434 39.0728 52.1163 39.0728 51.9806C39.047 51.7846 39.0977 51.581 39.2085 51.4195H37.8149C37.5606 51.6403 37.6533 52.0905 37.7222 52.2607L38.2316 53.4918C38.2565 53.5348 38.2565 53.6027 38.2565 53.6448C38.2144 53.7729 38.1208 53.8407 38.0271 53.8828C37.9085 53.9258 37.7814 53.9507 37.6533 53.942C37.3991 53.9679 37.076 53.942 36.7443 53.8828L36.3285 54.8348L36.6085 54.8769C38.1886 55.2 39.4714 54.767 39.633 54.095C39.676 53.9258 39.7008 53.7729 39.633 53.6448L39.2592 52.6516ZM43.6515 54.8769H44.9763L46.3949 51.4195H45.1121L43.6515 54.8769ZM53.8794 53.6448L53.5057 52.6516C53.4799 52.5665 53.4378 52.4815 53.3862 52.3706C53.3441 52.2434 53.3097 52.1163 53.2935 51.9806C53.2935 51.7846 53.3183 51.5896 53.4541 51.4195H52.0613C51.8061 51.6403 51.8998 52.0905 51.9677 52.2607L52.4772 53.4918C52.503 53.5434 52.503 53.5941 52.4772 53.6448C52.4523 53.7729 52.3586 53.8407 52.2649 53.8828C52.1464 53.9258 52.0183 53.9507 51.8912 53.942C51.6369 53.9679 51.3052 53.942 50.9822 53.8828L50.5663 54.8348L50.8464 54.8769C52.4265 55.2 53.7093 54.767 53.8708 54.095C53.9215 53.9258 53.9473 53.7729 53.8794 53.6448V53.6448ZM49.2329 52.3285C49.4613 52.3285 49.8102 52.3285 50.0903 52.3706L50.5071 51.4023C50.184 51.3344 49.8102 51.3172 49.4365 51.3172C47.8985 51.3172 46.5822 52.1842 46.4379 53.1783C46.2763 54.1466 47.1089 54.9954 48.646 54.9954C49.0283 54.9954 49.4107 54.9534 49.7844 54.8683L50.1754 53.9C49.8016 53.9593 49.2922 54.0109 49.0111 53.9851C48.1958 53.9851 47.8048 53.662 47.8736 53.1439C47.9501 52.6516 48.6039 52.3285 49.2329 52.3285V52.3285ZM35.6574 51.4195L34.7991 53.2548C34.6375 53.6706 34.2638 53.942 33.5679 53.9679C32.9647 53.9937 32.633 53.5769 32.8032 53.0416L33.5249 51.4195H32.2L31.529 52.9995C31.5032 53.0674 31.486 53.1267 31.4611 53.1945C31.1801 54.1638 31.9276 54.9878 33.2534 54.9878C34.8335 54.9878 35.8104 54.2145 36.2099 53.2376L36.9995 51.4195H35.6574ZM14.6921 52.7367V54.2737L16.34 52.7367H14.6921ZM19.1092 52.4815L17.6649 53.8656H19.1092V52.4815ZM19.0327 51.4195H20.3834V54.8769H19.0585C18.897 54.6217 18.4038 54.5376 17.9449 54.5538C17.4355 54.5538 16.926 54.6819 16.6459 54.8769H14.9894L19.0327 51.4195ZM28.2159 52.3285C27.5869 52.3285 26.9417 52.6516 26.8652 53.1267C26.7974 53.6448 27.3747 53.9679 28.0037 53.9679C28.6317 53.9679 29.2779 53.6448 29.3544 53.1697C29.4471 52.6516 28.8439 52.3285 28.2159 52.3285V52.3285ZM30.8408 53.1267C30.6792 54.1208 29.3544 54.9878 27.8163 54.9878C26.2793 54.9878 25.2594 54.1466 25.4209 53.1697C25.5566 52.1756 26.8824 51.3086 28.4195 51.3086C29.9824 51.3086 30.9851 52.1756 30.8408 53.1267V53.1267ZM23.8494 52.3285C24.1037 52.3285 24.4268 52.3285 24.7069 52.3706L25.1236 51.4023C24.8005 51.3344 24.4268 51.3172 24.053 51.3172C22.516 51.3172 21.1902 52.1842 21.0544 53.1783C20.8929 54.1466 21.7513 54.9954 23.2635 54.9954C23.6458 54.9954 24.0272 54.9534 24.4019 54.8683L24.8005 53.9C24.4268 53.9593 23.9173 54.0109 23.6372 53.9851C22.8219 53.9851 22.4309 53.662 22.4988 53.1439C22.5666 52.6516 23.2205 52.3285 23.8494 52.3285V52.3285ZM12.5088 53.8579H13.9446V54.8683H11.0387V51.4109H12.5002V53.8579H12.5088Z" fill="#B2B2B2"/>
</svg>
