<svg width="87" height="87" viewBox="0 0 87 87" fill="none" xmlns="http://www.w3.org/2000/svg">
<g clip-path="url(#clip0)">
<path fill-rule="evenodd" clip-rule="evenodd" d="M43.1622 1.87249C20.023 1.87249 1.19671 20.6978 1.19671 43.838C1.19671 66.9781 20.023 85.8034 43.1622 85.8034C66.3023 85.8034 85.1277 66.9781 85.1277 43.838C85.1277 20.6978 66.3023 1.87249 43.1622 1.87249ZM43.1622 87.0001C19.3631 87.0001 0 67.638 0 43.838C0 20.0379 19.3631 0.675781 43.1622 0.675781C66.9622 0.675781 86.3244 20.0379 86.3244 43.838C86.3244 67.638 66.9622 87.0001 43.1622 87.0001Z" fill="#FEFEFE"/>
<path fill-rule="evenodd" clip-rule="evenodd" d="M24 42V37.3559H14.6987V13C13.0026 14.5278 11.432 16.1891 10 17.9641V42H24Z" fill="#FEFEFE"/>
<path fill-rule="evenodd" clip-rule="evenodd" d="M30.4739 16.9302C30.4739 15.8052 30.773 14.979 31.3722 14.4458C31.9714 13.9146 32.6811 13.6476 33.5004 13.6476C34.3189 13.6476 35.0268 13.9146 35.6278 14.4458C36.2261 14.979 36.5261 15.8052 36.5261 16.9302V34.0679C36.5261 35.1929 36.2261 36.021 35.6278 36.5523C35.0268 37.0854 34.3189 37.3505 33.5004 37.3505C32.6811 37.3505 31.9714 37.0854 31.3722 36.5523C30.773 36.021 30.4739 35.1929 30.4739 34.0679V16.9302ZM30.8036 41.4977C31.6938 41.8319 32.5931 42 33.5004 42C34.4051 42 35.3053 41.8319 36.1973 41.4977C37.0894 41.1635 37.8926 40.6705 38.6095 40.0179C39.3254 39.3634 39.9031 38.5428 40.3415 37.5559C40.7808 36.5682 41 35.4067 41 34.0679V16.9302C41 15.625 40.7808 14.4692 40.3415 13.4674C39.9031 12.4628 39.3254 11.6366 38.6095 10.9821C37.8926 10.3286 37.0894 9.83466 36.1973 9.50042C35.3053 9.16712 34.4051 9 33.5004 9C32.5931 9 31.6938 9.16712 30.8036 9.50042C29.9106 9.83466 29.1074 10.3286 28.3905 10.9821C27.6737 11.6366 27.0969 12.4628 26.6585 13.4674C26.2192 14.4692 26 15.625 26 16.9302V34.0679C26 35.4067 26.2192 36.5682 26.6585 37.5559C27.0969 38.5428 27.6737 39.3634 28.3905 40.0179C29.1074 40.6705 29.9106 41.1635 30.8036 41.4977Z" fill="#FEFEFE"/>
<path fill-rule="evenodd" clip-rule="evenodd" d="M56.8029 23.0235H48.6978V13.3148H58V9H44V41H48.6978V27.3383H56.8029V23.0235Z" fill="#FEFEFE"/>
<path fill-rule="evenodd" clip-rule="evenodd" d="M59 13.3147H64.4369V41H69.136V13.3147H73C71.3431 11.7424 69.5569 10.2989 67.6584 9H59V13.3147Z" fill="#FEFEFE"/>
<path fill-rule="evenodd" clip-rule="evenodd" d="M20.3643 61.7528V76H25V44H20.3643V57.7086H14.6375V44H10V70.2591C11.4133 72.011 12.9635 73.6506 14.6375 75.1586V61.7528H20.3643Z" fill="#FEFEFE"/>
<path fill-rule="evenodd" clip-rule="evenodd" d="M34.6992 64.8098L36.9332 53.2136H37.0229L39.255 64.8098H34.6992ZM35.1008 44L28 76H32.5558L33.896 69.1248H40.1031L41.4433 76H46L38.8983 44H35.1008Z" fill="#FEFEFE"/>
<path fill-rule="evenodd" clip-rule="evenodd" d="M53.6972 44H49V76H63V71.4163H53.6972V44Z" fill="#FEFEFE"/>
<path fill-rule="evenodd" clip-rule="evenodd" d="M68.5945 44H64V76H70.4092C72.0542 74.5915 73.5894 73.0587 75 71.4163H68.5945V44Z" fill="#FEFEFE"/>
</g>
<defs>
<clipPath id="clip0">
<rect width="87" height="87" fill="white"/>
</clipPath>
</defs>
</svg>
