<svg width="59" height="65" viewBox="0 0 59 65" fill="none" xmlns="http://www.w3.org/2000/svg">
<mask id="mask0" mask-type="alpha" maskUnits="userSpaceOnUse" x="0" y="0" width="58" height="36">
<path fill-rule="evenodd" clip-rule="evenodd" d="M0.0751953 0H57.9415V35.3894H0.0751953V0Z" fill="white"/>
</mask>
<g mask="url(#mask0)">
<path fill-rule="evenodd" clip-rule="evenodd" d="M57.9363 17.694C57.9363 23.4919 57.9349 29.2897 57.9415 35.0876C57.9418 35.3185 57.9026 35.3949 57.6508 35.3887C56.8452 35.3688 56.0387 35.3708 55.233 35.3876C54.9963 35.3926 54.9562 35.3213 54.9564 35.1005C54.9623 25.9504 54.9615 16.8002 54.9615 7.64993C54.9615 6.21194 54.96 4.77381 54.9636 3.33582C54.9639 3.18754 54.9607 3.09713 54.7619 3.1237C52.3462 3.44751 49.979 3.98846 47.6522 4.7076C43.2387 6.07173 39.0977 8.00504 35.2986 10.6476C33.0284 12.2266 30.9514 14.0277 29.0854 16.0695C28.9634 16.203 28.9038 16.2119 28.7764 16.0723C25.1968 12.1492 20.9209 9.19043 16.1202 6.96404C12.8903 5.4661 9.52562 4.36792 6.04541 3.62417C5.07367 3.4165 4.09234 3.25765 3.10683 3.12634C2.96941 3.10798 2.89624 3.12703 2.91864 3.28561C2.92754 3.34848 2.92003 3.41371 2.92003 3.47784C2.92003 14.0019 2.91891 24.5261 2.92698 35.0502C2.92726 35.3256 2.86522 35.3969 2.58897 35.3889C1.84772 35.367 1.10522 35.3722 0.363555 35.3869C0.139191 35.3914 0.0742324 35.3385 0.0752061 35.1053C0.0849429 32.9163 0.0810482 30.7272 0.0810482 28.538C0.0810482 19.1497 0.0810482 9.76129 0.0810482 0.372905C0.0810482 -0.00279683 0.08077 -1.48863e-05 0.461201 0.0237708C5.86611 0.36289 11.0576 1.62423 16.064 3.66381C19.8097 5.18985 23.2868 7.18617 26.4541 9.70926C27.2489 10.3423 28.0221 11.0019 28.7504 11.7114C28.8757 11.8336 28.9484 11.8649 29.0964 11.726C33.6722 7.43363 39.0344 4.49061 44.9542 2.50944C47.548 1.64133 50.1976 0.993419 52.8945 0.544134C54.5083 0.275398 56.1323 0.0842781 57.7678 0.000819699C57.9058 -0.00627427 57.9514 0.0314211 57.9374 0.163146C57.9306 0.226436 57.9363 0.291255 57.9363 0.355379C57.9363 6.13488 57.9363 11.9145 57.9363 17.694" fill="white"/>
</g>
<path fill-rule="evenodd" clip-rule="evenodd" d="M8.13514 25.428C8.13514 22.204 8.13875 18.9798 8.12818 15.7558C8.12735 15.5087 8.20176 15.4523 8.42766 15.445C9.63961 15.4053 10.842 15.5075 12.0339 15.7083C14.446 16.1143 16.7188 16.9137 18.8093 18.1973C22.0627 20.195 24.3482 23.0237 25.8872 26.4854C26.6772 28.2628 27.2359 30.1142 27.5974 32.0243C27.6441 32.271 27.7267 32.3632 27.9967 32.3528C28.6552 32.3271 29.3155 32.3399 29.9748 32.3475C30.1381 32.3493 30.207 32.3155 30.2429 32.1339C30.8577 29.0161 31.8891 26.0582 33.6729 23.4012C36.2469 19.5668 39.8228 17.1614 44.2771 16.034C45.9581 15.6087 47.6686 15.406 49.4063 15.4411C49.6955 15.4469 49.7529 15.5422 49.7527 15.8158C49.7445 22.2365 49.7447 28.6571 49.7521 35.0777C49.7524 35.3261 49.6933 35.3933 49.4432 35.3876C48.6651 35.3701 47.8861 35.3714 47.1079 35.3874C46.879 35.3921 46.8261 35.3344 46.8263 35.1058C46.8337 29.7019 46.8312 24.2979 46.8351 18.8939C46.8354 18.6731 46.8368 18.5644 46.5381 18.5995C43.7508 18.9291 41.2873 20.0011 39.1576 21.8184C36.6359 23.9702 35.1807 26.765 34.3569 29.9283C33.911 31.6409 33.6986 33.3874 33.6061 35.1502C33.5962 35.3408 33.5452 35.3865 33.3567 35.3861C30.5081 35.3794 27.6597 35.3794 24.8111 35.3858C24.6268 35.3862 24.5682 35.3488 24.5581 35.1542C24.4482 33.0616 24.164 30.997 23.5327 28.9904C22.6541 26.1986 21.2268 23.7557 18.9776 21.8386C17.2094 20.3314 15.1786 19.3484 12.9169 18.8353C12.4096 18.7203 11.8973 18.6363 11.3779 18.5908C11.2242 18.5773 11.1761 18.6168 11.1894 18.7613C11.1953 18.8249 11.1904 18.8894 11.1904 18.9535C11.1904 24.3117 11.1904 29.67 11.1904 35.0282C11.1904 35.3815 11.1904 35.3814 10.8243 35.3814C10.0091 35.3812 9.19381 35.3722 8.37883 35.3874C8.16268 35.3914 8.13041 35.3229 8.13082 35.1277C8.13694 31.8945 8.13514 28.6612 8.13514 25.428" fill="white"/>
<path fill-rule="evenodd" clip-rule="evenodd" d="M5.64257 42.9126C3.88494 42.9127 2.1273 42.9065 0.369665 42.9197C0.11623 42.9216 0.0722751 42.8469 0.0754743 42.6141C0.0889668 41.6073 0.0870194 40.6002 0.0776999 39.5933C0.0758916 39.4029 0.121933 39.3433 0.318478 39.3438C3.87033 39.3493 7.42218 39.3489 10.974 39.3443C11.1393 39.3442 11.1965 39.383 11.1952 39.5559C11.1878 40.6086 11.1831 41.6614 11.1966 42.7139C11.1994 42.9394 11.0827 42.9131 10.9429 42.9131C9.1762 42.9122 7.40939 42.9124 5.64257 42.9126" fill="white"/>
<path fill-rule="evenodd" clip-rule="evenodd" d="M52.3844 42.9124C50.6169 42.9124 48.8493 42.9088 47.0818 42.9174C46.8799 42.9184 46.8239 42.8752 46.8264 42.6661C46.8388 41.6405 46.8364 40.6147 46.8276 39.589C46.8261 39.402 46.8705 39.3425 47.0674 39.3428C50.6116 39.3489 54.1558 39.3489 57.7002 39.3429C57.8959 39.3425 57.9421 39.3998 57.9405 39.5881C57.9316 40.623 57.9316 41.6579 57.9407 42.6928C57.9422 42.8739 57.892 42.9172 57.7145 42.9165C55.9378 42.9098 54.1611 42.9124 52.3844 42.9124" fill="white"/>
<path fill-rule="evenodd" clip-rule="evenodd" d="M29.0849 42.9122C27.6666 42.9122 26.2483 42.9067 24.8301 42.9179C24.6092 42.9195 24.5641 42.8544 24.5664 42.6466C24.5772 41.6219 24.5762 40.5969 24.5671 39.5721C24.5654 39.3888 24.6177 39.3435 24.7963 39.3439C27.6513 39.3492 30.5061 39.35 33.3611 39.3428C33.5654 39.3422 33.5971 39.4132 33.5959 39.5929C33.5885 40.6268 33.587 41.661 33.597 42.6949C33.5988 42.8817 33.5387 42.9165 33.3673 42.9158C31.9399 42.9094 30.5124 42.9122 29.0849 42.9122" fill="white"/>
<mask id="mask1" mask-type="alpha" maskUnits="userSpaceOnUse" x="0" y="51" width="7" height="6">
<path fill-rule="evenodd" clip-rule="evenodd" d="M0 51.0166H6.32668V56.9496H0V51.0166Z" fill="white"/>
</mask>
<g mask="url(#mask1)">
<path fill-rule="evenodd" clip-rule="evenodd" d="M3.19562 55.2418C3.32414 54.685 3.45253 54.1282 3.58105 53.5714C3.76327 52.7823 3.94994 51.9942 4.12326 51.2031C4.15108 51.0764 4.19559 51.0387 4.31841 51.0397C4.93211 51.0441 5.54581 51.045 6.15936 51.0387C6.29651 51.0373 6.32586 51.0889 6.32572 51.2151C6.32239 53.0652 6.32155 54.9152 6.3267 56.7652C6.32712 56.9193 6.2673 56.9486 6.13363 56.9456C5.83165 56.9388 5.5287 56.9313 5.22727 56.9472C5.04255 56.9569 5.00388 56.8926 5.00472 56.7186C5.01153 55.299 5.00861 53.8794 5.00875 52.4599C5.00875 52.4143 5.00875 52.3686 5.00875 52.3231C4.9947 52.3198 4.98065 52.3165 4.96674 52.3131C4.85352 52.7406 4.73876 53.1677 4.62735 53.5956C4.35458 54.643 4.07777 55.6893 3.81766 56.7398C3.77788 56.9 3.71904 56.9515 3.56492 56.9462C3.31802 56.9377 3.07015 56.9349 2.82339 56.9465C2.6498 56.9545 2.57329 56.9046 2.52683 56.7204C2.17325 55.3186 1.80367 53.921 1.44215 52.5212C1.42393 52.4508 1.41239 52.3816 1.33574 52.2932C1.33574 52.5998 1.33574 52.8748 1.33574 53.1497C1.33588 54.3312 1.32976 55.5127 1.34145 56.694C1.34353 56.9049 1.28497 56.9604 1.08328 56.9472C0.818858 56.9298 0.551373 56.9288 0.287088 56.9477C0.0741302 56.963 0.0312882 56.8839 0.0322619 56.6845C0.0401905 55.0727 0.0340702 53.4607 0.0393559 51.8488C0.0401905 51.587 -0.0780423 51.2387 0.0913783 51.0882C0.237291 50.9586 0.57808 51.045 0.832768 51.0426C1.20833 51.0391 1.58459 51.0557 1.95904 51.0358C2.14626 51.0258 2.20761 51.0942 2.24502 51.2613C2.52169 52.4954 2.80531 53.7279 3.08726 54.9609C3.10743 55.0495 3.13121 55.1372 3.15333 55.2254C3.16752 55.2308 3.18157 55.2363 3.19562 55.2418" fill="white"/>
</g>
<path fill-rule="evenodd" clip-rule="evenodd" d="M26.5617 52.2751V54.1879C26.5617 55.0306 26.5568 55.8733 26.5657 56.7156C26.5675 56.8901 26.5266 56.957 26.3429 56.9471C26.0689 56.9322 25.7927 56.9296 25.519 56.9464C25.3156 56.9589 25.2519 56.8994 25.2549 56.6892C25.267 55.8468 25.2599 55.0042 25.2599 54.1615C25.2599 53.209 25.2663 52.2564 25.255 51.304C25.2525 51.087 25.3166 51.0279 25.5305 51.0357C25.9969 51.0527 26.465 51.0542 26.9313 51.0347C27.1325 51.0264 27.2164 51.11 27.2975 51.2722C27.867 52.4111 28.4445 53.5462 29.0199 54.682C29.056 54.7532 29.096 54.8222 29.1841 54.8861C29.1841 54.8108 29.1841 54.7357 29.1841 54.6606C29.1841 53.5341 29.1884 52.4075 29.1796 51.2811C29.1781 51.0948 29.2165 51.0239 29.4164 51.0363C29.7083 51.0542 30.0024 51.0467 30.2952 51.0373C30.4347 51.0328 30.4881 51.0717 30.4877 51.2193C30.4838 53.0693 30.4842 54.9195 30.4871 56.7695C30.4873 56.9001 30.4412 56.9463 30.3116 56.9442C29.9454 56.9386 29.5788 56.9358 29.2129 56.9453C29.0504 56.9494 29.022 56.8312 28.9689 56.7297C28.2288 55.3181 27.4895 53.906 26.7495 52.4943C26.7077 52.4147 26.6617 52.3377 26.6176 52.2594C26.599 52.2646 26.5803 52.2698 26.5617 52.2751" fill="white"/>
<path fill-rule="evenodd" clip-rule="evenodd" d="M17.4308 56.9421C17.024 56.9421 16.6227 56.9373 16.2218 56.9446C16.0692 56.9474 16.0496 56.8325 16.0044 56.7392C15.671 56.0519 15.3355 55.3656 15.0122 54.6735C14.9481 54.5365 14.8753 54.4851 14.7264 54.496C14.5352 54.5097 14.3412 54.5124 14.1505 54.4956C13.9627 54.479 13.9026 54.5312 13.9067 54.7298C13.9204 55.3976 13.9057 56.0658 13.9163 56.7336C13.9189 56.9047 13.8704 56.9533 13.703 56.9462C13.4016 56.9332 13.0991 56.936 12.7974 56.9451C12.6549 56.9494 12.5894 56.9277 12.59 56.7583C12.5962 54.9099 12.594 53.0615 12.5933 51.213C12.5932 51.118 12.5823 51.0345 12.7273 51.0391C13.7229 51.0699 14.7219 50.9746 15.7149 51.0956C16.6744 51.2124 17.3403 51.9956 17.2678 52.9188C17.2222 53.4991 16.8793 53.8972 16.3836 54.1496C16.1862 54.2502 16.1983 54.3245 16.2783 54.4858C16.6377 55.2109 16.9881 55.9405 17.3411 56.6688C17.3796 56.7485 17.4415 56.821 17.4308 56.9421" fill="white"/>
<path fill-rule="evenodd" clip-rule="evenodd" d="M44.8572 53.9845C44.8572 53.079 44.8614 52.1733 44.8535 51.2679C44.8519 51.0952 44.888 51.0309 45.076 51.0376C45.8877 51.0662 46.701 50.9985 47.5104 51.1402C49.3723 51.466 49.9805 52.8401 49.8293 54.4007C49.7487 55.2332 49.4252 55.9484 48.7158 56.4433C48.2951 56.7367 47.8228 56.9025 47.313 56.9186C46.5635 56.9423 45.8132 56.9329 45.0635 56.9474C44.893 56.9507 44.8518 56.8946 44.8532 56.7286C44.8615 55.8139 44.8572 54.8992 44.8572 53.9845" fill="white"/>
<path fill-rule="evenodd" clip-rule="evenodd" d="M58.1628 54.0146C58.1446 54.9931 57.876 55.8746 57.084 56.5105C56.0112 57.372 53.9078 57.2842 53.1314 55.6294C52.5346 54.3579 52.5773 53.0876 53.409 51.9267C54.0259 51.0654 54.9495 50.8484 55.9463 50.9994C57.0052 51.1597 57.6526 51.8359 57.9868 52.8285C58.1158 53.2109 58.1809 53.6066 58.1628 54.0146" fill="white"/>
<path fill-rule="evenodd" clip-rule="evenodd" d="M43.9782 53.2841C43.9782 53.8699 43.9791 54.4555 43.9781 55.0412C43.9764 56.0583 43.4979 56.6801 42.5067 56.9317C41.8171 57.1067 41.1306 57.0892 40.4688 56.8108C39.7372 56.5034 39.3665 55.9362 39.3609 55.1468C39.352 53.8565 39.3628 52.5661 39.3537 51.2759C39.3523 51.0836 39.3989 51.0239 39.5933 51.0363C39.8758 51.0543 40.1613 51.0547 40.4438 51.0362C40.6462 51.0228 40.6807 51.0991 40.6795 51.2832C40.6722 52.482 40.6766 53.6808 40.6776 54.8796C40.6776 54.9528 40.6759 55.0263 40.6819 55.0991C40.7654 56.1024 41.566 56.1835 42.1829 55.9376C42.565 55.7851 42.649 55.4144 42.6531 55.0487C42.6668 53.8135 42.6724 52.5779 42.6599 51.3428C42.6572 51.0813 42.7368 51.0173 42.9794 51.0363C43.2431 51.0569 43.5106 51.0539 43.7749 51.0365C43.9543 51.0248 43.9838 51.0917 43.9819 51.2526C43.9734 51.9298 43.9782 52.607 43.9782 53.2841" fill="white"/>
<path fill-rule="evenodd" clip-rule="evenodd" d="M38.2993 56.9429C37.6603 56.9429 37.6628 56.9422 37.4824 56.3242C37.4013 56.0461 37.3853 55.6841 37.1991 55.5199C37.0056 55.3495 36.6384 55.4814 36.3477 55.4685C36.2197 55.4628 36.0912 55.4675 35.9629 55.4675C35.2716 55.4675 35.2715 55.4675 35.082 56.1167C35.0034 56.3858 35.014 56.744 34.8134 56.8969C34.6094 57.0524 34.2655 56.9368 33.9832 56.9409C33.5131 56.948 33.5105 56.9422 33.6482 56.501C34.1949 54.7492 34.7455 52.9985 35.2869 51.245C35.3359 51.0866 35.4011 51.0328 35.5679 51.0374C36.0255 51.05 36.4837 51.0456 36.9416 51.0395C37.0708 51.0377 37.1287 51.0733 37.1707 51.2074C37.7531 53.0626 38.3408 54.9162 38.9375 56.7669C38.9965 56.9497 38.9218 56.9464 38.794 56.9437C38.6291 56.9403 38.4642 56.9429 38.2993 56.9429" fill="white"/>
<path fill-rule="evenodd" clip-rule="evenodd" d="M9.52415 51.0409C9.75853 51.0606 10.11 50.9274 10.3032 51.0886C10.4802 51.2364 10.4898 51.5848 10.5725 51.8449C11.0875 53.4642 11.5985 55.0845 12.1218 56.7011C12.1887 56.9081 12.1461 56.9541 11.9422 56.9453C11.6405 56.9324 11.3378 56.9373 11.0357 56.943C10.9072 56.9455 10.8453 56.9081 10.8109 56.7719C10.7201 56.4108 10.6019 56.0567 10.5055 55.6968C10.4629 55.5381 10.4041 55.4551 10.2135 55.4612C9.71026 55.4775 9.20589 55.4744 8.70236 55.4627C8.52028 55.4585 8.45337 55.5282 8.41053 55.6971C8.31887 56.058 8.19243 56.4102 8.10076 56.7713C8.06557 56.9104 7.99936 56.9459 7.87334 56.9444C7.56204 56.9403 7.24976 56.9284 6.93944 56.9469C6.72022 56.96 6.73343 56.8687 6.78198 56.7143C7.30234 55.0592 7.81867 53.403 8.33918 51.7478C8.41192 51.5162 8.4065 51.1919 8.58719 51.0806C8.76829 50.9692 9.06554 51.0462 9.31188 51.0411C9.36683 51.04 9.42177 51.0409 9.52415 51.0409" fill="white"/>
<path fill-rule="evenodd" clip-rule="evenodd" d="M46.5047 61.2388C46.5047 62.3613 46.4989 63.4045 46.5096 64.4476C46.5118 64.6585 46.4645 64.7417 46.2421 64.7189C46.0428 64.6983 45.8391 64.7052 45.6384 64.7175C45.4888 64.7267 45.4555 64.6688 45.4559 64.5294C45.4601 63.0369 45.4607 61.5443 45.455 60.0517C45.4544 59.9025 45.5027 59.8681 45.6416 59.8719C45.9984 59.8816 46.3918 59.784 46.7027 59.9046C47.0176 60.0268 47.1251 60.4496 47.3235 60.7397C47.7356 61.3426 48.1292 61.9579 48.5308 62.568C48.5692 62.6264 48.5924 62.6978 48.6986 62.7454V62.0598C48.6986 61.4004 48.7048 60.741 48.6943 60.0819C48.6916 59.912 48.736 59.8592 48.9062 59.8708C49.1341 59.8861 49.364 59.88 49.5927 59.8719C49.7111 59.8677 49.7488 59.9047 49.7485 60.0255C49.7449 61.5363 49.745 63.0472 49.7478 64.5581C49.7481 64.6738 49.717 64.7219 49.5939 64.7172C49.3746 64.7089 49.1541 64.705 48.935 64.7171C48.7795 64.7256 48.7365 64.615 48.6728 64.5182C48.01 63.5123 47.3474 62.5063 46.6844 61.5006C46.6406 61.434 46.5943 61.369 46.5047 61.2388" fill="white"/>
<path fill-rule="evenodd" clip-rule="evenodd" d="M23.5505 61.3246C23.5505 62.3477 23.5414 63.371 23.5568 64.3939C23.5606 64.6577 23.4919 64.7559 23.2246 64.7172C22.9931 64.6837 22.6907 64.8165 22.5413 64.6607C22.4054 64.5191 22.5028 64.2244 22.5023 63.9975C22.4988 62.7064 22.506 61.4152 22.4952 60.1242C22.4934 59.9114 22.5555 59.8587 22.7572 59.8706C23.1034 59.8911 23.5064 59.7785 23.7824 59.9212C24.0453 60.0574 24.1788 60.4468 24.3649 60.7276C24.807 61.395 25.2464 62.0642 25.6959 62.7465C25.7595 62.6595 25.7336 62.5768 25.7339 62.5019C25.7363 61.6961 25.7404 60.8903 25.7311 60.0847C25.729 59.9129 25.7786 59.8612 25.9464 59.8716C26.1654 59.8852 26.3863 59.8841 26.6053 59.8719C26.7554 59.8634 26.7856 59.9215 26.7852 60.0594C26.7809 61.5428 26.7794 63.0263 26.7865 64.5097C26.7873 64.687 26.7269 64.7179 26.5653 64.7189C25.8552 64.7226 25.856 64.7273 25.4679 64.1358C24.8772 63.2352 24.2852 62.3356 23.6936 61.4356C23.6647 61.3916 23.6341 61.3488 23.6043 61.3054C23.5864 61.3118 23.5684 61.3182 23.5505 61.3246" fill="white"/>
<path fill-rule="evenodd" clip-rule="evenodd" d="M30.1841 62.2922C30.1842 61.5687 30.1899 60.845 30.1802 60.1217C30.1778 59.9417 30.2044 59.8609 30.4122 59.8723C31.1238 59.9111 31.8405 59.811 32.5492 59.9384C33.8615 60.1741 34.5117 61.1445 34.4368 62.4146C34.3672 63.5975 33.8781 64.2484 32.9165 64.544C32.5386 64.6602 32.147 64.7018 31.7538 64.7101C31.3052 64.7198 30.8561 64.7054 30.4077 64.7191C30.2261 64.7246 30.1774 64.6696 30.1798 64.4902C30.1898 63.7576 30.1839 63.0248 30.1841 62.2922" fill="white"/>
<path fill-rule="evenodd" clip-rule="evenodd" d="M42.176 62.3067C42.1541 63.2775 41.8554 64.105 40.9237 64.5619C39.7233 65.1508 37.918 64.6868 37.6474 62.7995C37.5313 61.9893 37.6284 61.2233 38.154 60.5755C38.7647 59.8227 39.593 59.6339 40.5006 59.853C41.3925 60.0685 41.8955 60.6936 42.1076 61.57C42.1663 61.8124 42.1695 62.0583 42.176 62.3067" fill="white"/>
<path fill-rule="evenodd" clip-rule="evenodd" d="M14.658 62.3209C14.6694 61.4471 14.8962 60.6995 15.6137 60.1841C16.7489 59.3687 18.8512 59.692 19.1854 61.7283C19.3135 62.5089 19.2263 63.2654 18.7463 63.9218C18.1837 64.6916 17.3797 64.9061 16.4863 64.7518C15.5362 64.5877 14.9797 63.9666 14.7389 63.0484C14.6737 62.7992 14.6727 62.5427 14.658 62.3209" fill="white"/>
<path fill-rule="evenodd" clip-rule="evenodd" d="M20.7888 54.5015C20.7888 55.234 20.7829 55.9665 20.7929 56.6987C20.7954 56.881 20.7633 56.962 20.5587 56.9478C20.2852 56.9289 20.0087 56.9285 19.7352 56.947C19.5224 56.9613 19.4778 56.8837 19.4789 56.6828C19.4875 55.2273 19.4796 53.7715 19.4886 52.3158C19.49 52.0968 19.443 52.0146 19.206 52.0272C18.7951 52.0492 18.3821 52.0268 17.9704 52.0365C17.8162 52.04 17.7566 51.997 17.7698 51.8378C17.7908 51.5842 17.6677 51.2559 17.8161 51.0946C17.9674 50.93 18.2996 51.0451 18.5519 51.0438C19.7878 51.0381 21.0238 51.0462 22.2599 51.0366C22.4536 51.0352 22.5168 51.0847 22.4997 51.2775C22.4828 51.4683 22.4869 51.6624 22.499 51.8538C22.5083 52.0004 22.4563 52.0393 22.3142 52.0364C21.8842 52.0279 21.4534 52.0442 21.0236 52.0285C20.8234 52.0211 20.7819 52.0904 20.7844 52.2768C20.7947 53.0183 20.7888 53.76 20.7888 54.5015" fill="white"/>
<path fill-rule="evenodd" clip-rule="evenodd" d="M23.0338 53.9791C23.0338 53.0817 23.0416 52.1841 23.0281 51.2868C23.0249 51.0732 23.088 51.0241 23.2885 51.0371C23.5711 51.0553 23.8561 51.0485 24.1397 51.0392C24.2841 51.0343 24.3506 51.0597 24.3501 51.2289C24.3443 53.0697 24.3443 54.9105 24.3501 56.7512C24.3506 56.9191 24.2833 56.9493 24.1396 56.9458C23.8375 56.9386 23.5344 56.9301 23.2332 56.9476C23.0473 56.9585 23.0296 56.8808 23.0307 56.7266C23.037 55.8108 23.0338 54.8949 23.0338 53.9791" fill="white"/>
<path fill-rule="evenodd" clip-rule="evenodd" d="M50.6395 53.9784C50.6395 53.0908 50.6485 52.2031 50.6333 51.3158C50.6293 51.0799 50.7025 51.021 50.9239 51.0365C51.1971 51.0555 51.4729 51.0491 51.7469 51.0379C51.8965 51.0318 51.9527 51.0658 51.9523 51.23C51.9466 53.0691 51.9467 54.9084 51.952 56.7475C51.9524 56.904 51.9079 56.9513 51.7531 56.9456C51.4515 56.9345 51.1488 56.9335 50.8474 56.9458C50.6735 56.9529 50.6349 56.8861 50.6361 56.7233C50.6431 55.8085 50.6395 54.8934 50.6395 53.9784" fill="white"/>
<path fill-rule="evenodd" clip-rule="evenodd" d="M8.13535 62.2837C8.13507 61.5514 8.13994 60.819 8.13131 60.0867C8.12936 59.9236 8.1615 59.8556 8.33954 59.8705C8.53942 59.8875 8.7439 59.8917 8.94281 59.8698C9.16731 59.8453 9.18901 59.9467 9.18776 60.1349C9.17969 61.2883 9.1879 62.4417 9.17955 63.5951C9.17816 63.7865 9.20765 63.8609 9.42617 63.8551C10.0849 63.8376 10.7444 63.853 11.4033 63.8458C11.5498 63.8441 11.6071 63.8707 11.6103 64.0354C11.6236 64.7146 11.63 64.7144 10.9592 64.7144C10.0986 64.7144 9.23797 64.709 8.37765 64.7186C8.19112 64.7208 8.12728 64.6801 8.13062 64.4806C8.14314 63.7485 8.13562 63.0161 8.13535 62.2837" fill="white"/>
<path fill-rule="evenodd" clip-rule="evenodd" d="M13.9269 52.7746C13.9269 52.5381 13.8341 52.2213 13.9511 52.0859C14.0884 51.9271 14.4133 52.0442 14.6566 52.0345C14.9402 52.0229 15.2234 52.0421 15.4935 52.138C15.8077 52.2495 15.9541 52.4733 15.9453 52.8078C15.9377 53.1036 15.7826 53.3057 15.4757 53.4043C14.995 53.5588 14.4979 53.495 14.0066 53.5067C13.8878 53.5095 13.9138 53.4181 13.9128 53.3507C13.9103 53.1588 13.912 52.9667 13.912 52.7746C13.9169 52.7746 13.9219 52.7746 13.9269 52.7746" fill="#0E100D"/>
<path fill-rule="evenodd" clip-rule="evenodd" d="M46.1744 53.9725C46.1744 53.3968 46.1802 52.8211 46.1706 52.2455C46.168 52.0829 46.202 52.0196 46.3788 52.0281C46.6522 52.0414 46.9249 52.0409 47.1974 52.0809C47.8725 52.1803 48.3268 52.5838 48.4543 53.2954C48.5579 53.8734 48.5392 54.4587 48.3202 55.0188C48.0992 55.5838 47.6791 55.883 47.0779 55.9333C46.7868 55.9576 46.4135 56.0623 46.2276 55.9092C46.0531 55.7651 46.1823 55.377 46.1763 55.0964C46.1684 54.722 46.1744 54.3471 46.1744 53.9725" fill="#0E100D"/>
<path fill-rule="evenodd" clip-rule="evenodd" d="M54.0863 54.0192C54.0997 53.5226 54.1643 53.0555 54.368 52.6185C54.5826 52.1579 54.9392 51.8811 55.456 51.8789C55.9736 51.8768 56.3466 52.1474 56.546 52.6127C56.9378 53.5275 56.9414 54.459 56.5483 55.3733C56.3509 55.8325 55.9956 56.1078 55.4631 56.1069C54.9206 56.1062 54.5804 55.8225 54.361 55.3558C54.1592 54.9264 54.1058 54.4668 54.0863 54.0192" fill="#0E100D"/>
<path fill-rule="evenodd" clip-rule="evenodd" d="M36.2633 52.0293C36.443 52.6623 36.6145 53.2426 36.7704 53.827C36.8308 54.0532 37.025 54.3436 36.9112 54.4913C36.7832 54.6575 36.4548 54.5296 36.2145 54.5474C36.1146 54.5547 36.0136 54.5485 35.913 54.5486C35.5313 54.549 35.5301 54.5486 35.6286 54.1967C35.8094 53.5505 35.9913 52.9046 36.1744 52.2591C36.1914 52.1991 36.2192 52.1422 36.2633 52.0293" fill="#0F110E"/>
<path fill-rule="evenodd" clip-rule="evenodd" d="M8.73682 54.5487C8.97467 53.7 9.19973 52.8965 9.42479 52.0938C9.52856 52.0965 9.50603 52.1773 9.5216 52.232C9.72037 52.931 9.91358 53.6317 10.1204 54.3283C10.1752 54.5128 10.1343 54.5587 9.94585 54.5526C9.55346 54.5398 9.16037 54.5487 8.73682 54.5487" fill="#0E100E"/>
<path fill-rule="evenodd" clip-rule="evenodd" d="M31.2323 62.2931C31.2323 61.8449 31.2428 61.3964 31.2274 60.9486C31.2206 60.7487 31.2893 60.7009 31.4757 60.71C31.7491 60.7234 32.0225 60.7141 32.2945 60.7644C32.8383 60.8653 33.2067 61.145 33.3294 61.7085C33.4084 62.0714 33.423 62.4361 33.3451 62.7953C33.2037 63.4462 32.7353 63.7898 31.9617 63.8407C31.2323 63.8888 31.2323 63.8888 31.2323 63.1712C31.2323 62.8786 31.2323 62.5858 31.2323 62.2931" fill="#0E100D"/>
<path fill-rule="evenodd" clip-rule="evenodd" d="M41.1194 62.2845C41.1335 62.6409 41.0859 62.9643 40.9503 63.2687C40.7486 63.7214 40.399 63.9549 39.8983 63.9559C39.3995 63.9569 39.031 63.7376 38.8431 63.2776C38.577 62.6264 38.5788 61.9591 38.8379 61.3055C39.0241 60.8363 39.4889 60.5657 39.9706 60.6078C40.533 60.6569 40.9202 61.0087 41.0554 61.6015C41.1084 61.8335 41.1376 62.0693 41.1194 62.2845" fill="#0E100D"/>
<path fill-rule="evenodd" clip-rule="evenodd" d="M15.713 62.2813C15.7112 61.9842 15.7411 61.6857 15.8447 61.399C16.024 60.9029 16.4373 60.6062 16.9443 60.6064C17.4432 60.6067 17.8586 60.8859 18.0285 61.377C18.2505 62.0184 18.2546 62.667 17.9839 63.2978C17.791 63.7471 17.4285 63.9535 16.9436 63.9558C16.4553 63.9581 16.1065 63.7345 15.8977 63.2995C15.7448 62.981 15.7109 62.6359 15.713 62.2813" fill="#0E100D"/>
</svg>
