<svg width="13" height="10" viewBox="0 0 13 10" fill="none" xmlns="http://www.w3.org/2000/svg">
<path opacity="0.839585" d="M1.11662 4.28115C4.33784 2.87772 6.48583 1.95249 7.56058 1.50546C10.6292 0.229115 11.2668 0.00739923 11.6824 7.80598e-05C11.7738 -0.00153215 11.9782 0.0211214 12.1106 0.128546C12.2224 0.219253 12.2532 0.341786 12.2679 0.427786C12.2826 0.513787 12.3009 0.709698 12.2864 0.862777C12.1201 2.61 11.4005 6.85005 11.0345 8.80697C10.8796 9.63501 10.5746 9.91265 10.2793 9.93982C9.63765 9.99887 9.15039 9.51576 8.52889 9.10836C7.55637 8.47086 7.00696 8.07401 6.06296 7.45193C4.97201 6.73301 5.67923 6.33788 6.30096 5.69212C6.46367 5.52313 9.29091 2.95152 9.34564 2.71824C9.35248 2.68906 9.35883 2.58031 9.29422 2.52288C9.22961 2.46546 9.13426 2.48509 9.06544 2.50071C8.9679 2.52285 7.41429 3.54973 4.40461 5.58135C3.96362 5.88417 3.56418 6.03171 3.20631 6.02398C2.81177 6.01546 2.05285 5.8009 1.48867 5.61751C0.796683 5.39257 0.246703 5.27365 0.294594 4.89163C0.319539 4.69265 0.593549 4.48916 1.11662 4.28115Z" fill="white"/>
</svg>
