<svg width="130" height="21" viewBox="0 0 130 21" fill="none" xmlns="http://www.w3.org/2000/svg">
<path fill-rule="evenodd" clip-rule="evenodd" d="M118.297 17.2757C113.769 17.2757 111.2 14.3536 111.2 10.1471C111.2 5.90842 113.801 3.01843 118.297 3.01843C122.825 3.01843 125.394 5.94054 125.394 10.1471C125.394 14.3536 122.825 17.2757 118.297 17.2757M118.297 20.2942C126.421 20.2942 129.6 15.5417 129.6 10.1471C129.6 4.75243 126.421 0 118.297 0C110.173 0 106.994 4.75243 106.994 10.1471C106.994 15.5417 110.173 20.2942 118.297 20.2942" fill="white"/>
<path fill-rule="evenodd" clip-rule="evenodd" d="M7.54609 19.8125V2.37623H0V0.545898H14.2252H16.1839H16.4729L22.7988 17.1473H22.8309L28.5467 0.545898H30.9871L36.6708 17.1473H36.735L44.249 0.545898H46.4004L37.7946 19.8125H35.4827L29.7027 3.33956H29.6385L23.9227 19.8125H21.1933L14.8995 2.37623H9.56908V19.8125H7.54609Z" fill="white"/>
<mask id="mask0" mask-type="alpha" maskUnits="userSpaceOnUse" x="0" y="0" width="130" height="21">
<path fill-rule="evenodd" clip-rule="evenodd" d="M0 20.2942H129.6V0H0V20.2942Z" fill="white"/>
</mask>
<g mask="url(#mask0)">
<path fill-rule="evenodd" clip-rule="evenodd" d="M101.374 19.7484H105.099V5.45898H101.374V19.7484Z" fill="white"/>
<path fill-rule="evenodd" clip-rule="evenodd" d="M101.374 3.21093H105.067V0.224609H101.374V3.21093Z" fill="white"/>
<path fill-rule="evenodd" clip-rule="evenodd" d="M43.7352 19.7161L52.2768 0.513672H57.0613L65.6028 19.7161H61.1073L59.0843 14.9636H50.0611L48.0702 19.7161H43.7352ZM51.2813 11.9452H57.8962L54.6209 3.85322L51.2813 11.9452Z" fill="white"/>
<path fill-rule="evenodd" clip-rule="evenodd" d="M83.7134 3.53211H89.1723C91.42 3.53211 95.4018 3.91744 95.4018 10.147C95.4018 15.7664 92.3191 16.7297 89.397 16.7297H85.608L85.5758 19.7482H91.0026C97.5532 19.7482 99.4478 14.482 99.4478 10.3075C99.4478 4.81655 97.5854 0.513672 90.0393 0.513672H83.7134H79.6995V11.3672C79.6995 14.0324 79.6032 17.2435 74.3049 17.2435C69.0708 17.2435 68.9423 14.0003 68.9423 11.3672V0.513672H64.9285V11.4635C64.9285 14.6425 65.0248 20.2619 74.3049 20.2619C83.6171 20.2619 83.7134 14.6425 83.7134 11.4635V3.53211Z" fill="white"/>
</g>
</svg>
